<?xml version="1.0" encoding="utf-8"?>
<!-- Generator: Adobe Illustrator 24.2.0, SVG Export Plug-In . SVG Version: 6.00 Build 0)  -->
<svg version="1.1" id="Capa_1" xmlns="http://www.w3.org/2000/svg" xmlns:xlink="http://www.w3.org/1999/xlink" x="0px" y="0px"
	 viewBox="0 0 83 82" style="enable-background:new 0 0 83 82;" xml:space="preserve">
<style type="text/css">
	.st0{fill:#044B80;}
</style>
<g>
	<path class="st0" d="M35,50.7c-1.4,0-3,0.7-3,2.2c-0.1,1,0.4,1.9,1.2,2.5c0.4,0.3,0.7,0.7,0.9,1.2h1.8c0.2-0.5,0.5-0.9,0.9-1.2
		c0.8-0.6,1.2-1.6,1.2-2.5C38,51.4,36.4,50.7,35,50.7z"/>
	<path class="st0" d="M39.4,39.2l0.1,0.3h5.3L54.3,23H26c-1.2,0-2.2,1-2.2,2.2V38h13.7C38.3,38,39,38.5,39.4,39.2z M25.2,26h25.5
		v1.5H25.2V26z M25.2,29h24v1.5h-24V29z M25.2,32h22.5v1.5H25.2V32z M25.2,35h21v1.5h-21V35z"/>
	<polygon class="st0" points="45.7,41.7 45,46.7 49,43.6 	"/>
	<path class="st0" d="M41.5,42.5h2.5l0.2-1.5h-4l0.5,1.1C41,42.3,41.2,42.5,41.5,42.5z"/>
	<path class="st0" d="M43.8,44h-2.3c-0.9,0-1.6-0.5-2-1.2l-1.4-2.8c-0.1-0.3-0.4-0.4-0.7-0.4H21.5c-0.4,0-0.7,0.3-0.7,0.7v6h22.8
		L43.8,44z M26,44c0,0.4-0.3,0.7-0.7,0.7H23c-0.4,0-0.7-0.3-0.7-0.7v-2.2c0-0.4,0.3-0.7,0.7-0.7h2.2c0.4,0,0.7,0.3,0.7,0.7V44z
		 M31.2,44c0,0.4-0.3,0.7-0.7,0.7h-2.2c-0.4,0-0.7-0.3-0.7-0.7v-2.2c0-0.4,0.3-0.7,0.7-0.7h2.2c0.4,0,0.7,0.3,0.7,0.7V44z M36.5,44
		c0,0.4-0.3,0.7-0.7,0.7h-2.2c-0.4,0-0.7-0.3-0.7-0.7v-2.2c0-0.4,0.3-0.7,0.7-0.7h2.2c0.4,0,0.7,0.3,0.7,0.7V44z"/>
	<rect x="29" y="42.5" class="st0" width="0.7" height="0.7"/>
	<rect x="23.7" y="42.5" class="st0" width="0.7" height="0.7"/>
	<path class="st0" d="M41.5,0.4C19.1,0.4,0.9,18.6,0.9,41c0,22.4,18.2,40.6,40.6,40.6c22.4,0,40.6-18.2,40.6-40.6
		C82.1,18.6,63.9,0.4,41.5,0.4z M62.9,23.1l-0.2,0.4v25.7c0,2.1-1.7,3.7-3.7,3.7h-8.2v8.2c0,1.2-1,2.2-2.2,2.2h-27
		c-1.2,0-2.2-1-2.2-2.2v-21c0-1.2,1-2.2,2.2-2.2h0.7V25.2c0-2.1,1.7-3.7,3.7-3.7h29.2l1.2-2.2c0,0,0,0,0,0c0.6-1.1,2-1.4,3.1-0.8
		l2.6,1.5c0,0,0,0,0,0C63.2,20.6,63.6,22,62.9,23.1z"/>
	<rect x="44.3" y="32.6" transform="matrix(0.5 -0.866 0.866 0.5 -4.2496 62.3002)" class="st0" width="15" height="4.5"/>
	<path class="st0" d="M51,43.8c0,0.1-0.1,0.2-0.2,0.2v0l-0.1,0.1c0,0.2,0.1,0.4,0.1,0.5v6.7h8.2c1.2,0,2.2-1,2.2-2.2V26.1l-2,3.5
		L51,43.8z"/>
	<rect x="34.2" y="42.5" class="st0" width="0.7" height="0.7"/>
	<path class="st0" d="M61.4,21.3l-2.6-1.5c-0.2-0.1-0.4-0.1-0.6-0.1c-0.2,0.1-0.4,0.2-0.5,0.4l-3.4,5.8l3.9,2.2l3.4-5.8
		C61.9,22,61.7,21.5,61.4,21.3z"/>
	<polygon class="st0" points="49.2,46.2 49.2,45.3 48,46.2 	"/>
	<path class="st0" d="M44.4,49.1c-0.2,0.1-0.4,0.2-0.6,0.2c-0.4-0.1-0.7-0.4-0.6-0.9l0.1-0.6H20.7v13.5c0,0.4,0.3,0.7,0.7,0.7h27
		c0.4,0,0.7-0.3,0.7-0.7V47.7h-3.1L44.4,49.1z M29,54.5h-3V53h3V54.5z M29.4,51.4l-2.6-1.5l0.7-1.3l2.6,1.5L29.4,51.4z M37.2,60.5
		h-4.5V59h4.5V60.5z M37.8,56.6c-0.4,0.4-0.6,0.6-0.6,0.9c0,0.4-0.3,0.7-0.7,0.7h-3c-0.4,0-0.7-0.3-0.7-0.7c0-0.3-0.1-0.4-0.6-0.9
		c-1.1-0.9-1.7-2.2-1.6-3.6c0-2.5,2.3-3.7,4.5-3.7c2.2,0,4.5,1.3,4.5,3.7C39.5,54.4,38.9,55.7,37.8,56.6z M39.8,50.1l2.6-1.5
		l0.7,1.3l-2.6,1.5L39.8,50.1z M44,54.5h-3V53h3V54.5z"/>
</g>
</svg>
