<?xml version="1.0" encoding="utf-8"?>
<!-- Generator: Adobe Illustrator 24.2.0, SVG Export Plug-In . SVG Version: 6.00 Build 0)  -->
<svg version="1.1" id="Capa_1" xmlns="http://www.w3.org/2000/svg" xmlns:xlink="http://www.w3.org/1999/xlink" x="0px" y="0px"
	 viewBox="0 0 50.1 50.1" style="enable-background:new 0 0 50.1 50.1;" xml:space="preserve">
<style type="text/css">
	.st0{fill:#044B80;}
	.st1{fill:#CCCCCC;}
	.st2{opacity:0.68;}
	.st3{fill:#CCCCCC;stroke:#FFFFFF;stroke-width:0.35;stroke-miterlimit:10;}
	.st4{opacity:0.68;fill:#CCCCCC;}
	.st5{fill:#FFFFFF;}
	.st6{fill:#F7931E;}
	.st7{fill:#FAFAFA;}
</style>
<g>
	<path class="st0" d="M-129.5,141.9v1.9h5.8c-0.1-0.6-0.1-1.3,0-1.9H-129.5z"/>
	<rect x="-129.5" y="138.1" class="st0" width="1.9" height="1.9"/>
	<path class="st0" d="M-117,141.9c-0.5,0-1,0.4-1,1c0,0.5,0.4,1,1,1c0.5,0,1-0.4,1-1S-116.5,141.9-117,141.9z"/>
	<path class="st0" d="M-117,138.1c-2.6,0-4.8,2.1-4.8,4.8c0,2.6,2.1,4.8,4.8,4.8c2.6,0,4.8-2.1,4.8-4.8S-114.4,138.1-117,138.1z
		 M-117,145.7c-1.6,0-2.9-1.3-2.9-2.9c0-1.6,1.3-2.9,2.9-2.9c1.6,0,2.9,1.3,2.9,2.9S-115.4,145.7-117,145.7z"/>
	<polygon class="st0" points="-91.2,122.7 -84.9,122.7 -86,118.9 -91.2,118.9 	"/>
	<path class="st0" d="M-83.8,126.6l-0.6-1.9h-7.8c-0.5,0-1-0.4-1-1v-5.7c0-0.5,0.4-1,1-1h5.6c-0.4-1.1-1.5-1.9-2.7-1.9H-95v11.5
		h10.5C-84.2,126.6-84,126.6-83.8,126.6z"/>
	<path class="st0" d="M-96.9,111.2h-32.6v19.2h32.6V111.2z M-123.7,125.6c0,0.5-0.4,1-1,1s-1-0.4-1-1V116c0-0.5,0.4-1,1-1s1,0.4,1,1
		V125.6z M-118,125.6c0,0.5-0.4,1-1,1s-1-0.4-1-1V116c0-0.5,0.4-1,1-1s1,0.4,1,1V125.6z M-112.2,125.6c0,0.5-0.4,1-1,1s-1-0.4-1-1
		V116c0-0.5,0.4-1,1-1s1,0.4,1,1V125.6z M-106.5,125.6c0,0.5-0.4,1-1,1s-1-0.4-1-1V116c0-0.5,0.4-1,1-1s1,0.4,1,1V125.6z
		 M-100.7,125.6c0,0.5-0.4,1-1,1s-1-0.4-1-1V116c0-0.5,0.4-1,1-1s1,0.4,1,1V125.6z"/>
	<path class="st0" d="M-96.9,132.3h-32.6v3.8h2.9c0.5,0,1,0.4,1,1v2.9h2.6c1.6-3.3,5.6-4.8,8.9-3.2c1.4,0.7,2.5,1.8,3.2,3.2h14.1
		V132.3z"/>
	<path class="st0" d="M-79.7,136.1h1.9c0,0,0-1.6-0.1-1.9h-1.8V136.1z"/>
	<path class="st0" d="M-77.7,138.1h-2.9c-0.5,0-1-0.4-1-1v-3.8c0-0.5,0.4-1,1-1h2.2c-1.1-2.3-3.5-3.8-6.1-3.8H-95V140h1.6
		c1.6-3.3,5.6-4.8,8.9-3.2c1.4,0.7,2.5,1.8,3.2,3.2h3.5V138.1z M-90.2,132.3h-1.9c-0.5,0-1-0.4-1-1s0.4-1,1-1h1.9c0.5,0,1,0.4,1,1
		S-89.7,132.3-90.2,132.3z"/>
	<path class="st0" d="M-76.8,141.9h-3.9c0.1,0.6,0.1,1.3,0,1.9h3.9c0.5,0,1-0.4,1-1S-76.3,141.9-76.8,141.9z"/>
	<path class="st0" d="M-87.3,138.1c-2.6,0-4.8,2.1-4.8,4.8c0,2.6,2.1,4.8,4.8,4.8c2.6,0,4.8-2.1,4.8-4.8S-84.7,138.1-87.3,138.1z
		 M-87.3,145.7c-1.6,0-2.9-1.3-2.9-2.9c0-1.6,1.3-2.9,2.9-2.9c1.6,0,2.9,1.3,2.9,2.9S-85.7,145.7-87.3,145.7z"/>
	<path class="st0" d="M-104,83.4c-25.8,0-46.7,20.9-46.7,46.7c0,25.8,20.9,46.7,46.7,46.7s46.7-20.9,46.7-46.7
		C-57.3,104.3-78.2,83.4-104,83.4z M-74.1,143.8c-0.4,1.1-1.5,1.9-2.7,1.9h-4.5c-1.6,3.3-5.6,4.8-8.9,3.2c-1.4-0.7-2.5-1.8-3.2-3.2
		H-111c-1.6,3.3-5.6,4.8-8.9,3.2c-1.4-0.7-2.5-1.8-3.2-3.2h-7.4c-0.5,0-1-0.4-1-1v-34.5c0-0.5,0.4-1,1-1h34.5c0.5,0,1,0.4,1,1v2.9
		h5.7c2.1,0,4,1.4,4.6,3.5l3,10.4c3.5,1.2,5.8,4.5,5.9,8.2v5C-74.3,140.7-73.5,142.3-74.1,143.8z"/>
	<path class="st0" d="M-110.4,141.9c0.1,0.6,0.1,1.3,0,1.9H-94c-0.1-0.6-0.1-1.3,0-1.9H-110.4z"/>
	<path class="st0" d="M-87.3,141.9c-0.5,0-1,0.4-1,1c0,0.5,0.4,1,1,1c0.5,0,1-0.4,1-1S-86.8,141.9-87.3,141.9z"/>
</g>
<g>
	<path class="st0" d="M-108.7-73.8c-1.7,0-3.4,0.8-3.4,2.6c-0.1,1.1,0.4,2.2,1.4,2.9c0.5,0.4,0.8,0.8,1.1,1.4h2
		c0.2-0.5,0.6-1,1.1-1.4c0.9-0.7,1.4-1.8,1.4-2.9C-105.2-73-107-73.8-108.7-73.8z"/>
	<path class="st0" d="M-103.6-87.1l0.1,0.3h6.1l11-19H-119c-1.4,0-2.6,1.2-2.6,2.6v14.7h15.7C-104.9-88.5-104-87.9-103.6-87.1z
		 M-119.9-102.3h29.3v1.7h-29.3V-102.3z M-119.9-98.8h27.6v1.7h-27.6V-98.8z M-119.9-95.4H-94v1.7h-25.9V-95.4z M-119.9-91.9h24.1
		v1.7h-24.1V-91.9z"/>
	<polygon class="st0" points="-96.3,-84.2 -97.2,-78.4 -92.6,-82 	"/>
	<path class="st0" d="M-101.1-83.3h2.9L-98-85h-4.6l0.6,1.2C-101.8-83.5-101.5-83.3-101.1-83.3z"/>
	<path class="st0" d="M-98.5-81.6h-2.7c-1,0-1.9-0.6-2.3-1.4l-1.6-3.3c-0.1-0.3-0.4-0.5-0.8-0.5h-18.3c-0.5,0-0.9,0.4-0.9,0.9v6.9
		h26.2L-98.5-81.6z M-119-81.6c0,0.5-0.4,0.9-0.9,0.9h-2.6c-0.5,0-0.9-0.4-0.9-0.9v-2.6c0-0.5,0.4-0.9,0.9-0.9h2.6
		c0.5,0,0.9,0.4,0.9,0.9V-81.6z M-113-81.6c0,0.5-0.4,0.9-0.9,0.9h-2.6c-0.5,0-0.9-0.4-0.9-0.9v-2.6c0-0.5,0.4-0.9,0.9-0.9h2.6
		c0.5,0,0.9,0.4,0.9,0.9V-81.6z M-107-81.6c0,0.5-0.4,0.9-0.9,0.9h-2.6c-0.5,0-0.9-0.4-0.9-0.9v-2.6c0-0.5,0.4-0.9,0.9-0.9h2.6
		c0.5,0,0.9,0.4,0.9,0.9V-81.6z"/>
	<rect x="-115.6" y="-83.3" class="st0" width="0.9" height="0.9"/>
	<rect x="-121.6" y="-83.3" class="st0" width="0.9" height="0.9"/>
	<path class="st0" d="M-101.2-131.7c-25.8,0-46.7,20.9-46.7,46.7c0,25.8,20.9,46.7,46.7,46.7c25.8,0,46.7-20.9,46.7-46.7
		C-54.5-110.8-75.4-131.7-101.2-131.7z M-76.5-105.6l-0.3,0.5v29.6c0,2.4-1.9,4.3-4.3,4.3h-9.5v9.5c0,1.4-1.2,2.6-2.6,2.6h-31
		c-1.4,0-2.6-1.2-2.6-2.6v-24.1c0-1.4,1.2-2.6,2.6-2.6h0.9v-14.7c0-2.4,1.9-4.3,4.3-4.3h33.6l1.4-2.5c0,0,0,0,0,0
		c0.7-1.2,2.3-1.7,3.5-0.9l3,1.7c0,0,0,0,0,0C-76.2-108.4-75.8-106.9-76.5-105.6z"/>
	<rect x="-97.9" y="-94.7" transform="matrix(0.5 -0.866 0.866 0.5 35.1216 -123.3693)" class="st0" width="17.2" height="5.2"/>
	<path class="st0" d="M-90.3-81.7c-0.1,0.1-0.1,0.2-0.2,0.2v0l-0.2,0.1c0.1,0.2,0.1,0.4,0.1,0.6v7.8h9.5c1.4,0,2.6-1.2,2.6-2.6
		v-26.6l-2.3,4L-90.3-81.7z"/>
	<rect x="-109.5" y="-83.3" class="st0" width="0.9" height="0.9"/>
	<path class="st0" d="M-78.3-107.7l-3-1.7c-0.2-0.1-0.4-0.1-0.7-0.1c-0.2,0.1-0.4,0.2-0.5,0.4l-3.9,6.7l4.5,2.6l3.9-6.7
		C-77.8-106.9-77.9-107.4-78.3-107.7z"/>
	<polygon class="st0" points="-92.3,-79 -92.3,-80.1 -93.7,-79 	"/>
	<path class="st0" d="M-97.8-75.7c-0.2,0.1-0.4,0.2-0.7,0.2c-0.5-0.1-0.8-0.5-0.7-1l0.1-0.7h-26v15.5c0,0.5,0.4,0.9,0.9,0.9h31
		c0.5,0,0.9-0.4,0.9-0.9v-15.5h-3.5L-97.8-75.7z M-115.6-69.5h-3.4v-1.7h3.4V-69.5z M-115.1-73.1l-3-1.7l0.9-1.5l3,1.7L-115.1-73.1z
		 M-106.1-62.6h-5.2v-1.7h5.2V-62.6z M-105.4-67.1c-0.5,0.5-0.7,0.7-0.7,1c0,0.5-0.4,0.9-0.9,0.9h-3.4c-0.5,0-0.9-0.4-0.9-0.9
		c0-0.3-0.2-0.5-0.7-1c-1.3-1-2-2.6-1.9-4.2c0-2.8,2.6-4.3,5.2-4.3s5.2,1.5,5.2,4.3C-103.4-69.6-104.1-68.1-105.4-67.1z
		 M-103.1-74.6l3-1.7l0.9,1.5l-3,1.7L-103.1-74.6z M-98.3-69.5h-3.4v-1.7h3.4V-69.5z"/>
</g>
<g id="Capa_3">
</g>
<g id="Capa_4">
</g>
<g>
	<path class="st0" d="M120.8,9.3c1,0,1.7-0.8,1.7-1.7V2.3c0-1-0.8-1.7-1.7-1.7c-1,0-1.7,0.8-1.7,1.7v5.2
		C119.1,8.5,119.9,9.3,120.8,9.3z"/>
	<rect x="127.8" y="38.2" class="st0" width="3.5" height="2.6"/>
	<path class="st0" d="M156.7,5.8h-4.4v1.7c0,1.9-1.6,3.5-3.5,3.5c-1.9,0-3.5-1.6-3.5-3.5V5.8h-7v1.7c0,1.9-1.6,3.5-3.5,3.5
		c-1.9,0-3.5-1.6-3.5-3.5V5.8h-7v1.7c0,1.9-1.6,3.5-3.5,3.5c-1.9,0-3.5-1.6-3.5-3.5V5.8H113c-1.4,0-2.6,1.2-2.6,2.6v6.1h49V8.4
		C159.3,7,158.1,5.8,156.7,5.8z"/>
	<rect x="127.8" y="30.3" class="st0" width="3.5" height="2.6"/>
	<path class="st0" d="M134.8,9.3c1,0,1.7-0.8,1.7-1.7V2.3c0-1-0.8-1.7-1.7-1.7c-1,0-1.7,0.8-1.7,1.7v5.2
		C133.1,8.5,133.9,9.3,134.8,9.3z"/>
	<rect x="138.3" y="22.4" class="st0" width="3.5" height="2.6"/>
	<path class="st0" d="M148.8,9.3c1,0,1.7-0.8,1.7-1.7V2.3c0-1-0.8-1.7-1.7-1.7c-1,0-1.7,0.8-1.7,1.7v5.2
		C147.1,8.5,147.9,9.3,148.8,9.3z"/>
	<path class="st0" d="M149.7,30.3c-5.3,0-9.6,4.3-9.6,9.6s4.3,9.6,9.6,9.6c5.3,0,9.6-4.3,9.6-9.6C159.3,34.6,155,30.3,149.7,30.3z
		 M156,37.5l-7.4,7.4c-0.3,0.3-0.9,0.3-1.2,0l-3.7-3.7c-0.3-0.3-0.3-0.9,0-1.2c0.3-0.3,0.9-0.4,1.2,0l3.1,3.1l6.8-6.8
		c0.3-0.3,0.9-0.3,1.2,0C156.3,36.6,156.3,37.1,156,37.5z"/>
	<rect x="148.8" y="22.4" class="st0" width="3.5" height="2.6"/>
	<rect x="117.3" y="38.2" class="st0" width="3.5" height="2.6"/>
	<rect x="117.3" y="22.4" class="st0" width="3.5" height="2.6"/>
	<rect x="117.3" y="30.3" class="st0" width="3.5" height="2.6"/>
	<path class="st0" d="M133.5-21.1c-25.8,0-46.7,20.9-46.7,46.7s20.9,46.7,46.7,46.7s46.7-20.9,46.7-46.7S159.3-21.1,133.5-21.1z
		 M149.7,51.3c-6.3,0-11.4-5.1-11.4-11.4s5.1-11.4,11.4-11.4c6.3,0,11.4,5.1,11.4,11.4C161.1,46.2,156,51.3,149.7,51.3z M138.3,28.6
		h3.5c0.5,0,0.9,0.4,0.9,0.9s-0.4,0.9-0.9,0.9h-3.5v2.6c0.5,0,0.9,0.4,0.9,0.9s-0.4,0.9-0.9,0.9c-1,0-1.7-0.8-1.7-1.7v-2.6
		C136.6,29.3,137.4,28.6,138.3,28.6z M136.6,25.1v-2.6c0-1,0.8-1.7,1.7-1.7h3.5c1,0,1.7,0.8,1.7,1.7v2.6c0,1-0.8,1.7-1.7,1.7h-3.5
		C137.4,26.8,136.6,26,136.6,25.1z M147.1,25.1v-2.6c0-1,0.8-1.7,1.7-1.7h3.5c1,0,1.7,0.8,1.7,1.7v2.6c0,1-0.8,1.7-1.7,1.7h-3.5
		C147.9,26.8,147.1,26,147.1,25.1z M161.1,31.2c0,0.5-0.4,0.9-0.9,0.9c-0.5,0-0.9-0.4-0.9-0.9V16.3h-49v27.1c0,1.4,1.2,2.6,2.6,2.6
		h24.5c0.5,0,0.9,0.4,0.9,0.9s-0.4,0.9-0.9,0.9H113c-2.4,0-4.4-2-4.4-4.4v-35c0-2.4,2-4.4,4.4-4.4h4.4V2.3c0-1.9,1.6-3.5,3.5-3.5
		c1.9,0,3.5,1.6,3.5,3.5v1.7h7V2.3c0-1.9,1.6-3.5,3.5-3.5c1.9,0,3.5,1.6,3.5,3.5v1.7h7V2.3c0-1.9,1.6-3.5,3.5-3.5
		c1.9,0,3.5,1.6,3.5,3.5v1.7h4.4c2.4,0,4.4,2,4.4,4.4V31.2z M131.3,34.7h-3.5c-1,0-1.7-0.8-1.7-1.7v-2.6c0-1,0.8-1.7,1.7-1.7h3.5
		c1,0,1.7,0.8,1.7,1.7v2.6C133.1,33.9,132.3,34.7,131.3,34.7z M133.1,38.2v2.6c0,1-0.8,1.7-1.7,1.7h-3.5c-1,0-1.7-0.8-1.7-1.7v-2.6
		c0-1,0.8-1.7,1.7-1.7h3.5C132.3,36.4,133.1,37.2,133.1,38.2z M131.3,26.8h-3.5c-1,0-1.7-0.8-1.7-1.7v-2.6c0-1,0.8-1.7,1.7-1.7h3.5
		c1,0,1.7,0.8,1.7,1.7v2.6C133.1,26,132.3,26.8,131.3,26.8z M120.8,34.7h-3.5c-1,0-1.7-0.8-1.7-1.7v-2.6c0-1,0.8-1.7,1.7-1.7h3.5
		c1,0,1.7,0.8,1.7,1.7v2.6C122.6,33.9,121.8,34.7,120.8,34.7z M122.6,38.2v2.6c0,1-0.8,1.7-1.7,1.7h-3.5c-1,0-1.7-0.8-1.7-1.7v-2.6
		c0-1,0.8-1.7,1.7-1.7h3.5C121.8,36.4,122.6,37.2,122.6,38.2z M120.8,26.8h-3.5c-1,0-1.7-0.8-1.7-1.7v-2.6c0-1,0.8-1.7,1.7-1.7h3.5
		c1,0,1.7,0.8,1.7,1.7v2.6C122.6,26,121.8,26.8,120.8,26.8z"/>
	<rect x="127.8" y="22.4" class="st0" width="3.5" height="2.6"/>
</g>
<g>
	<path class="st1" d="M-59.9,14c-2.5-2.5-5.5-4.4-8.8-5.5c4-2.7,6.4-7.6,5.6-13c-0.9-5.9-5.7-10.6-11.6-11.2
		c-8-0.9-14.9,5.4-14.9,13.2c0,4.5,2.3,8.6,5.8,11c-3.3,1.1-6.2,3-8.8,5.5c-3.9,3.9-6.2,8.9-6.7,14.4c-0.1,1,0.8,1.9,1.8,1.9
		c0.9,0,1.7-0.7,1.8-1.6c0.8-9.9,9.2-17.8,19.4-17.8c10.2,0,18.5,7.8,19.4,17.8c0.1,0.9,0.9,1.6,1.8,1.6c1,0,1.9-0.9,1.8-1.9
		C-53.6,22.9-56,17.9-59.9,14z M-76.1,7.3c-5.4,0-9.7-4.4-9.7-9.7c0-5.4,4.4-9.7,9.7-9.7s9.7,4.4,9.7,9.7
		C-66.4,2.9-70.8,7.3-76.1,7.3z"/>
</g>
<g>
	<g class="st2">
		<g>
			<g>
				<path class="st1" d="M-117.5-3.5c-2.3-3-5.9-4.8-9.7-4.8c0,0,0,0,0,0c-3.9,0-7.4,1.9-9.6,4.7c-1.6,2.1-2.5,4.7-2.5,7.4
					c0,2.5,0.8,5.4,2.5,7.3c0,0,0,0,0,0c2.2,2.9,5.7,4.7,9.6,4.7c4,0,7.8-2,10-5.3c1.4-2,2.1-4.4,2.1-6.8
					C-115.1,1-116-1.5-117.5-3.5z M-129.2-6.8c-0.4,0.4-0.9,0.9-1.3,1.6c-0.6,0.9-1.4,2-1.9,3.4c-1-0.4-2-0.9-2.8-1.5
					C-133.7-5-131.6-6.3-129.2-6.8z M-136.1-2.1c0.9,0.7,2,1.2,3.2,1.7c-0.3,1.1-0.5,2.2-0.6,3.5h-4.3
					C-137.7,1.1-137.1-0.6-136.1-2.1z M-136.1,9.6c-1-1.5-1.6-3.3-1.7-5.2h4.3c0.1,1.3,0.3,2.5,0.6,3.5
					C-134.1,8.4-135.2,9-136.1,9.6z M-135.3,10.8c0.8-0.6,1.7-1.1,2.8-1.5c0.6,1.4,1.3,2.5,1.9,3.4c0.5,0.6,0.9,1.1,1.3,1.6
					C-131.6,13.8-133.7,12.5-135.3,10.8z M-127.9,13.7c-0.5-0.5-1.1-1.1-1.6-1.8c-0.7-0.9-1.2-1.9-1.7-2.9c1-0.3,2.2-0.4,3.3-0.5
					V13.7L-127.9,13.7z M-127.9,7c-1.3,0-2.6,0.2-3.8,0.6c-0.3-1-0.5-2-0.5-3.1h4.3L-127.9,7L-127.9,7z M-127.9,3.1h-4.3
					c0.1-1.1,0.2-2.1,0.5-3.1c1.2,0.3,2.5,0.5,3.8,0.6V3.1z M-127.9-0.9c-1.1,0-2.3-0.2-3.3-0.5c0.4-1,1-2,1.7-2.9
					c0.6-0.8,1.2-1.4,1.6-1.8V-0.9z M-118.2-2.1c1,1.5,1.6,3.3,1.7,5.2h-4.3c-0.1-1.3-0.3-2.5-0.6-3.5
					C-120.2-0.9-119.1-1.5-118.2-2.1z M-119.1-3.3c-0.8,0.6-1.7,1.1-2.8,1.5c-0.6-1.4-1.3-2.5-1.9-3.4c-0.5-0.6-0.9-1.1-1.3-1.6
					C-122.7-6.3-120.6-5-119.1-3.3z M-126.5-6.2c0.5,0.5,1.1,1.1,1.6,1.8c0.7,0.9,1.2,1.9,1.7,2.9c-1,0.3-2.2,0.4-3.3,0.5
					L-126.5-6.2L-126.5-6.2z M-126.5,0.5c1.3,0,2.6-0.2,3.8-0.6c0.3,1,0.5,2,0.5,3.1h-4.3V0.5L-126.5,0.5z M-126.5,4.4h4.3
					c-0.1,1.1-0.2,2.1-0.5,3.1c-1.2-0.3-2.5-0.5-3.8-0.6L-126.5,4.4L-126.5,4.4z M-126.5,13.7V8.4c1.1,0,2.3,0.2,3.3,0.5
					c-0.4,1-1,2-1.7,2.9C-125.4,12.6-126,13.2-126.5,13.7z M-125.1,14.3c0.4-0.4,0.9-0.9,1.3-1.6c0.6-0.9,1.4-2,1.9-3.4
					c1,0.4,2,0.9,2.8,1.5C-120.6,12.5-122.7,13.8-125.1,14.3z M-118.2,9.6c-0.9-0.7-2-1.2-3.2-1.7c0.3-1.1,0.5-2.2,0.6-3.5h4.3
					C-116.6,6.4-117.2,8.1-118.2,9.6z"/>
			</g>
		</g>
	</g>
	<g class="st2">
		<g>
			<g>
				<path class="st1" d="M-119.5-12.2h-15.3c-0.4,0-0.7,0.3-0.7,0.7c0,0.4,0.3,0.7,0.7,0.7h15.3c0.4,0,0.7-0.3,0.7-0.7
					C-118.8-11.9-119.1-12.2-119.5-12.2z"/>
			</g>
		</g>
	</g>
	<g class="st2">
		<g>
			<g>
				<path class="st1" d="M-119.5,18.3h-15.3c-0.4,0-0.7,0.3-0.7,0.7s0.3,0.7,0.7,0.7h15.3c0.4,0,0.7-0.3,0.7-0.7
					S-119.1,18.3-119.5,18.3z"/>
			</g>
		</g>
	</g>
	<g class="st2">
		<g>
			<g>
				<path class="st1" d="M-119.5,21.6h-15.3c-0.4,0-0.7,0.3-0.7,0.7c0,0.4,0.3,0.7,0.7,0.7h15.3c0.4,0,0.7-0.3,0.7-0.7
					C-118.8,21.9-119.1,21.6-119.5,21.6z"/>
			</g>
		</g>
	</g>
	<g class="st2">
		<g>
			<g>
				<path class="st1" d="M-109.6-13c-0.4-1.9-2.1-3.4-4.2-3.4h-30.5c-0.4,0-0.7,0.3-0.7,0.7v31.2c0,0.4,0.3,0.7,0.7,0.7
					c0.4,0,0.7-0.3,0.7-0.7V-15c0,0,29.7,0,29.8,0c1.5,0,2.9,1.3,2.9,2.9c0,0,0,5.5,0,5.5c0,0.4,0.3,0.7,0.7,0.7
					c0.4,0,0.7-0.3,0.7-0.7v-4.9c1,0.5,1.7,1.5,1.7,2.6v35.6c0,1.6-1.3,2.9-2.9,2.9h-26.9c-1.2,0-2.3-0.8-2.7-1.9h26.5
					c2.3,0,4.2-1.9,4.2-4.2V-3.9c0-0.4-0.3-0.7-0.7-0.7c-0.4,0-0.7,0.3-0.7,0.7v27.3c0,1.6-1.3,2.9-2.9,2.9c0,0-26.9,0-26.9,0
					c-1.6,0-2.9-1.3-2.9-2.9v-5.1c0-0.4-0.3-0.7-0.7-0.7c-0.4,0-0.7,0.3-0.7,0.7v5.1c0,2,1.3,3.6,3.1,4.1c0.4,1.9,2.1,3.4,4.2,3.4
					h26.9c2.3,0,4.2-1.9,4.2-4.2V-8.9C-106.4-10.8-107.7-12.5-109.6-13z"/>
			</g>
		</g>
	</g>
</g>
<g>
	<path class="st1" d="M-118.2,82c-1.9,0-4.1-0.6-6.6-1.8c-2.8-1.3-4.2-1.3-5.1-1.2c-0.7,0-1.5,0.1-2.2-0.7c-0.3-0.3-1.4-1.7,0.9-4
		c1.2-1.2,2.8-1.5,4.1-1.5l-8.1-8.1c-0.5-0.5-0.8-1.2-0.8-2c0-0.8,0.3-1.5,0.8-2c0.5-0.5,1.2-0.8,2-0.8h0c0.8,0,1.5,0.3,2,0.8
		l3.3,3.4c0.1-0.3,0.3-0.5,0.5-0.7c0.8-0.8,1.9-1,2.8-0.7c0.1-0.4,0.4-0.7,0.7-1.1c1.1-1.1,2.7-1.1,3.9-0.1c0.1-0.3,0.3-0.5,0.5-0.7
		c1.1-1.1,2.9-1.1,4,0l5.3,5.3c3.3,3.3,2.9,8.1-0.9,11.9c0,0,0,0,0,0l-2.2,2.2C-114.5,81.4-116.2,82-118.2,82L-118.2,82z
		 M-129.3,77.1c1.1,0,2.7,0.2,5.4,1.4c5.8,2.8,8.2,1.4,9.4,0.2l2.2-2.2c0,0,0,0,0,0c2.3-2.3,3.9-6.1,0.9-9.1l-5.3-5.3
		c-0.3-0.3-0.9-0.3-1.3,0c-0.3,0.3-0.4,0.9,0,1.3l0,0l1.3,1.3c0.2,0.2,0.3,0.4,0.3,0.7c0,0.2-0.1,0.5-0.3,0.7c-0.4,0.4-1,0.4-1.4,0
		l-3.1-3.1c-0.3-0.3-0.9-0.3-1.3,0c-0.3,0.3-0.4,0.9,0,1.3l2.2,2.2c0.2,0.2,0.3,0.4,0.3,0.7c0,0.2-0.1,0.5-0.3,0.7
		c-0.4,0.4-1,0.4-1.4,0l-3.1-3.1c-0.3-0.3-0.9-0.3-1.3,0c-0.2,0.2-0.3,0.4-0.3,0.6c0,0.2,0.1,0.5,0.3,0.6l2.2,2.2
		c0.2,0.2,0.3,0.4,0.3,0.7s-0.1,0.5-0.3,0.7c-0.4,0.4-1,0.4-1.4,0l-7.4-7.4c-0.2-0.2-0.4-0.3-0.6-0.3c-0.2,0-0.5,0.1-0.6,0.3
		c-0.2,0.2-0.3,0.4-0.3,0.6c0,0.2,0.1,0.5,0.3,0.6l10.1,10.1c0.3,0.3,0.4,0.8,0.1,1.2c-0.2,0.4-0.7,0.6-1.1,0.4c0,0-3.5-1-5.2,0.6
		c-0.8,0.8-0.9,1.2-0.8,1.3c0.1,0.1,0.1,0.1,0.7,0.1C-129.7,77.1-129.5,77.1-129.3,77.1L-129.3,77.1z M-118.6,61.4L-118.6,61.4
		L-118.6,61.4z"/>
	<path class="st1" d="M-118.5,50.9h-29.2c-3.8,0-6.8-3.1-6.8-6.8s3.1-6.8,6.8-6.8h29.2c3.8,0,6.8,3.1,6.8,6.8
		S-114.8,50.9-118.5,50.9z M-147.7,39.3c-2.7,0-4.9,2.2-4.9,4.9s2.2,4.9,4.9,4.9h29.2c2.7,0,4.9-2.2,4.9-4.9s-2.2-4.9-4.9-4.9
		H-147.7z"/>
	<path class="st1" d="M-145.8,47c-1.6,0-2.9-1.3-2.9-2.9s1.3-2.9,2.9-2.9s2.9,1.3,2.9,2.9S-144.1,47-145.8,47z M-145.8,43.2
		c-0.5,0-1,0.4-1,1s0.4,1,1,1s1-0.4,1-1S-145.2,43.2-145.8,43.2z"/>
	<path class="st1" d="M-136,47c-1.6,0-2.9-1.3-2.9-2.9s1.3-2.9,2.9-2.9s2.9,1.3,2.9,2.9S-134.4,47-136,47z M-136,43.2
		c-0.5,0-1,0.4-1,1s0.4,1,1,1s1-0.4,1-1S-135.5,43.2-136,43.2z"/>
	<path class="st1" d="M-139.9,62.6h-7.8c-3.8,0-6.8-3.1-6.8-6.8c0-1.8,0.7-3.5,2-4.8s3-2,4.8-2h29.2c3.8,0,6.8,3.1,6.8,6.8
		c0,0.5-0.4,1-1,1c-0.5,0-1-0.4-1-1c0-2.7-2.2-4.9-4.9-4.9h-29.2c-1.3,0-2.5,0.5-3.4,1.4c-0.9,0.9-1.4,2.1-1.4,3.4
		c0,2.7,2.2,4.9,4.9,4.9h7.8c0.5,0,1,0.4,1,1S-139.4,62.6-139.9,62.6z"/>
	<path class="st1" d="M-145.8,58.7c-1.6,0-2.9-1.3-2.9-2.9s1.3-2.9,2.9-2.9s2.9,1.3,2.9,2.9S-144.1,58.7-145.8,58.7z M-145.8,54.8
		c-0.5,0-1,0.4-1,1s0.4,1,1,1s1-0.4,1-1S-145.2,54.8-145.8,54.8z"/>
	<path class="st1" d="M-136,58.7c-1.6,0-2.9-1.3-2.9-2.9s1.3-2.9,2.9-2.9s2.9,1.3,2.9,2.9S-134.4,58.7-136,58.7z M-136,54.8
		c-0.5,0-1,0.4-1,1s0.4,1,1,1s1-0.4,1-1S-135.5,54.8-136,54.8z"/>
	<path class="st1" d="M-136,74.3h-11.7c-3.8,0-6.8-3.1-6.8-6.8c0-1.8,0.7-3.5,2-4.8s3-2,4.8-2h7.8c0.5,0,1,0.4,1,1s-0.4,1-1,1h-7.8
		c-1.3,0-2.5,0.5-3.4,1.4c-0.9,0.9-1.4,2.1-1.4,3.4c0,2.7,2.2,4.9,4.9,4.9h11.7c0.5,0,1,0.4,1,1C-135.1,73.8-135.5,74.3-136,74.3z"
		/>
	<path class="st1" d="M-145.8,70.4c-1.6,0-2.9-1.3-2.9-2.9c0-1.6,1.3-2.9,2.9-2.9s2.9,1.3,2.9,2.9
		C-142.8,69.1-144.1,70.4-145.8,70.4z M-145.8,66.5c-0.5,0-1,0.4-1,1c0,0.5,0.4,1,1,1s1-0.4,1-1C-144.8,66.9-145.2,66.5-145.8,66.5z
		"/>
</g>
<g>
	<path class="st3" d="M-131-47.7l-14.7,13l-14.7-13c-0.6-0.5-1.5-0.5-2,0.1c-0.5,0.6-0.5,1.5,0.1,2l15.6,13.8
		c0.3,0.2,0.6,0.4,0.9,0.4c0.3,0,0.7-0.1,0.9-0.4l15.6-13.8c0.6-0.5,0.6-1.4,0.1-2C-129.6-48.1-130.5-48.2-131-47.7L-131-47.7z
		 M-131-47.7"/>
	<path class="st3" d="M-127.3-53.7h-36.9c-2.3,0-4.2,1.9-4.2,4.2V-27c0,2.3,1.9,4.2,4.2,4.2h36.9c2.3,0,4.2-1.9,4.2-4.2v-22.4
		C-123-51.8-124.9-53.7-127.3-53.7L-127.3-53.7z M-125.9-27c0,0.8-0.6,1.4-1.4,1.4h-36.9c-0.8,0-1.4-0.6-1.4-1.4v-22.4
		c0-0.8,0.6-1.4,1.4-1.4h36.9c0.8,0,1.4,0.6,1.4,1.4V-27z M-125.9-27"/>
</g>
<g>
	<g>
		<path class="st4" d="M-40-42.4c2.9,0,5.3-2.4,5.3-5.3c0-2.9-2.4-5.3-5.3-5.3c-2.9,0-5.3,2.4-5.3,5.3C-45.3-44.8-42.9-42.4-40-42.4
			z M-40-50.9c1.8,0,3.2,1.4,3.2,3.2c0,1.8-1.4,3.2-3.2,3.2c-1.8,0-3.2-1.4-3.2-3.2C-43.3-49.5-41.8-50.9-40-50.9z"/>
		<path class="st4" d="M-40-40.5c-2.2,0-4.2,0.8-5.7,2.4c-1.5,1.6-2.4,3.7-2.4,6c0,0.6,0.5,1,1,1H-33c0.6,0,1-0.5,1-1
			c0-2.3-0.8-4.4-2.4-6C-35.8-39.6-37.9-40.5-40-40.5z M-46-33.2c0.2-1.3,0.8-2.6,1.7-3.5c1.1-1.1,2.7-1.8,4.3-1.8
			c1.6,0,3.1,0.6,4.3,1.8c0.9,1,1.5,2.2,1.7,3.5H-46z"/>
	</g>
	<path class="st4" d="M-27.8-66.9h-24.4c-2.8,0-5.1,2.3-5.1,5.1v36c0,2.8,2.3,5.1,5.1,5.1h24.4c2.8,0,5.1-2.3,5.1-5.1v-36
		C-22.8-64.7-25-66.9-27.8-66.9z M-24.8-25.9c0,1.7-1.4,3-3,3h-24.4c-1.7,0-3-1.4-3-3v-36c0-1.7,1.4-3,3-3h24.4c1.7,0,3,1.4,3,3
		V-25.9z"/>
	<path class="st4" d="M-44.3-60.1h8.1c0.6,0,1-0.5,1-1s-0.5-1-1-1h-8.1c-0.6,0-1,0.5-1,1S-44.8-60.1-44.3-60.1z"/>
</g>
<g>
	<path class="st0" d="M5.8-66.7c-8.6,0-15.9,7.3-15.9,15.9c0,2.9,0.8,6,2.3,8.4l-2.2,6.7c-0.1,0.2,0,0.5,0.2,0.6
		c0.2,0.2,0.4,0.2,0.6,0.1l6.7-2.2c2.4,1.4,5.5,2.3,8.4,2.3c8.6,0,15.9-7.3,15.9-15.9C21.7-59.4,14.4-66.7,5.8-66.7z"/>
	<path class="st5" d="M15.5-58.3c0,0.3,0.3,0.6,0.6,0.6c0.3,0,0.6-0.3,0.6-0.6c0-0.3-0.3-0.6-0.6-0.6C15.8-58.9,15.5-58.6,15.5-58.3
		z"/>
	<path class="st5" d="M18-50.9c0,0.8-0.1,1.6-0.2,2.4c-0.1,0.3,0.1,0.7,0.5,0.7c0,0,0.1,0,0.1,0c0.3,0,0.5-0.2,0.6-0.5
		c0.2-0.9,0.3-1.7,0.3-2.6c0-2-0.4-3.8-1.3-5.6c-0.1-0.3-0.5-0.4-0.8-0.3c-0.3,0.1-0.4,0.5-0.3,0.8C17.6-54.3,18-52.6,18-50.9z"/>
	<path class="st5" d="M8.9-45.3H8.3v-8.1C8.3-53.7,8-54,7.7-54h-5c-0.3,0-0.6,0.3-0.6,0.6v2.5c0,0.3,0.3,0.6,0.6,0.6h0.6v5H2.7
		c-0.3,0-0.6,0.3-0.6,0.6v2.5c0,0.3,0.3,0.6,0.6,0.6h6.2c0.3,0,0.6-0.3,0.6-0.6v-2.5C9.5-45,9.3-45.3,8.9-45.3z M8.3-42.8h-5V-44
		h0.6c0.3,0,0.6-0.3,0.6-0.6v-6.2c0-0.3-0.3-0.6-0.6-0.6H3.3v-1.2H7v8.1C7-44.3,7.3-44,7.7-44h0.6V-42.8z"/>
	<path class="st5" d="M5.8-55.2c1.4,0,2.5-1.1,2.5-2.5s-1.1-2.5-2.5-2.5S3.3-59,3.3-57.7S4.4-55.2,5.8-55.2z M5.8-58.9
		c0.7,0,1.2,0.6,1.2,1.2s-0.6,1.2-1.2,1.2S4.6-57,4.6-57.7S5.1-58.9,5.8-58.9z"/>
</g>
<path class="st6" d="M25.1,46.9C37.2,46.9,47,37.1,47,25c0-12.1-9.8-21.9-21.9-21.9C13,3.1,3.1,12.9,3.1,25
	C3.2,37.1,13,46.9,25.1,46.9z"/>
<path class="st7" d="M21.3,12.6c0.3,0,0.5,0.1,0.7,0.3l11.4,11.4c0.4,0.4,0.4,1,0,1.3L21.9,37.1c-0.4,0.4-1,0.4-1.3,0
	c-0.4-0.4-0.4-1,0-1.3L31.3,25L20.6,14.3c-0.4-0.4-0.4-1,0-1.3C20.8,12.7,21,12.6,21.3,12.6L21.3,12.6z"/>
</svg>
