<?xml version="1.0" encoding="utf-8"?>
<!-- Generator: Adobe Illustrator 24.2.0, SVG Export Plug-In . SVG Version: 6.00 Build 0)  -->
<svg version="1.1" id="Capa_1" xmlns="http://www.w3.org/2000/svg" xmlns:xlink="http://www.w3.org/1999/xlink" x="0px" y="0px"
	 viewBox="0 0 83 82" style="enable-background:new 0 0 83 82;" xml:space="preserve">
<style type="text/css">
	.st0{fill:#044B80;}
</style>
<g>
	<path class="st0" d="M30.3,26.6c0.8,0,1.5-0.7,1.5-1.5v-4.6c0-0.8-0.7-1.5-1.5-1.5c-0.8,0-1.5,0.7-1.5,1.5v4.6
		C28.8,26,29.5,26.6,30.3,26.6z"/>
	<rect x="36.4" y="51.8" class="st0" width="3" height="2.3"/>
	<path class="st0" d="M61.6,23.6h-3.8v1.5c0,1.7-1.4,3-3,3c-1.7,0-3-1.4-3-3v-1.5h-6.1v1.5c0,1.7-1.4,3-3,3c-1.7,0-3-1.4-3-3v-1.5
		h-6.1v1.5c0,1.7-1.4,3-3,3c-1.7,0-3-1.4-3-3v-1.5h-3.8c-1.3,0-2.3,1-2.3,2.3v5.3h42.6v-5.3C63.8,24.6,62.8,23.6,61.6,23.6z"/>
	<rect x="36.4" y="44.9" class="st0" width="3" height="2.3"/>
	<path class="st0" d="M42.5,26.6c0.8,0,1.5-0.7,1.5-1.5v-4.6c0-0.8-0.7-1.5-1.5-1.5c-0.8,0-1.5,0.7-1.5,1.5v4.6
		C41,26,41.7,26.6,42.5,26.6z"/>
	<rect x="45.6" y="38.1" class="st0" width="3" height="2.3"/>
	<path class="st0" d="M54.7,26.6c0.8,0,1.5-0.7,1.5-1.5v-4.6c0-0.8-0.7-1.5-1.5-1.5c-0.8,0-1.5,0.7-1.5,1.5v4.6
		C53.2,26,53.9,26.6,54.7,26.6z"/>
	<path class="st0" d="M55.5,44.9c-4.6,0-8.4,3.7-8.4,8.4s3.7,8.4,8.4,8.4c4.6,0,8.4-3.8,8.4-8.4C63.8,48.7,60.1,44.9,55.5,44.9z
		 M60.9,51.2l-6.5,6.5c-0.3,0.3-0.8,0.3-1.1,0l-3.2-3.2c-0.3-0.3-0.3-0.8,0-1.1c0.3-0.3,0.8-0.3,1.1,0l2.7,2.7l5.9-5.9
		c0.3-0.3,0.8-0.3,1.1,0C61.2,50.4,61.2,50.9,60.9,51.2z"/>
	<rect x="54.7" y="38.1" class="st0" width="3" height="2.3"/>
	<rect x="27.3" y="51.8" class="st0" width="3" height="2.3"/>
	<rect x="27.3" y="38.1" class="st0" width="3" height="2.3"/>
	<rect x="27.3" y="44.9" class="st0" width="3" height="2.3"/>
	<path class="st0" d="M41.4,0.1C18.9,0.1,0.7,18.3,0.7,40.8s18.2,40.6,40.6,40.6S82,63.2,82,40.8S63.8,0.1,41.4,0.1z M55.5,63.2
		c-5.5,0-9.9-4.4-9.9-9.9s4.4-9.9,9.9-9.9c5.5,0,9.9,4.4,9.9,9.9C65.4,58.8,60.9,63.2,55.5,63.2z M45.6,43.4h3
		c0.4,0,0.8,0.3,0.8,0.8c0,0.4-0.3,0.8-0.8,0.8h-3v2.3c0.4,0,0.8,0.3,0.8,0.8c0,0.4-0.3,0.8-0.8,0.8c-0.8,0-1.5-0.7-1.5-1.5v-2.3
		C44,44.1,44.7,43.4,45.6,43.4z M44,40.3v-2.3c0-0.8,0.7-1.5,1.5-1.5h3c0.8,0,1.5,0.7,1.5,1.5v2.3c0,0.8-0.7,1.5-1.5,1.5h-3
		C44.7,41.9,44,41.2,44,40.3z M53.2,40.3v-2.3c0-0.8,0.7-1.5,1.5-1.5h3c0.8,0,1.5,0.7,1.5,1.5v2.3c0,0.8-0.7,1.5-1.5,1.5h-3
		C53.9,41.9,53.2,41.2,53.2,40.3z M65.4,45.7c0,0.4-0.3,0.8-0.8,0.8c-0.4,0-0.8-0.3-0.8-0.8V32.7H21.2v23.6c0,1.3,1,2.3,2.3,2.3
		h21.3c0.4,0,0.8,0.3,0.8,0.8c0,0.4-0.3,0.8-0.8,0.8H23.5c-2.1,0-3.8-1.7-3.8-3.8V25.9c0-2.1,1.7-3.8,3.8-3.8h3.8v-1.5
		c0-1.7,1.4-3,3-3c1.7,0,3,1.4,3,3v1.5h6.1v-1.5c0-1.7,1.4-3,3-3c1.7,0,3,1.4,3,3v1.5h6.1v-1.5c0-1.7,1.4-3,3-3c1.7,0,3,1.4,3,3v1.5
		h3.8c2.1,0,3.8,1.7,3.8,3.8V45.7z M39.5,48.7h-3c-0.8,0-1.5-0.7-1.5-1.5v-2.3c0-0.8,0.7-1.5,1.5-1.5h3c0.8,0,1.5,0.7,1.5,1.5v2.3
		C41,48,40.3,48.7,39.5,48.7z M41,51.8v2.3c0,0.8-0.7,1.5-1.5,1.5h-3c-0.8,0-1.5-0.7-1.5-1.5v-2.3c0-0.8,0.7-1.5,1.5-1.5h3
		C40.3,50.2,41,50.9,41,51.8z M39.5,41.9h-3c-0.8,0-1.5-0.7-1.5-1.5v-2.3c0-0.8,0.7-1.5,1.5-1.5h3c0.8,0,1.5,0.7,1.5,1.5v2.3
		C41,41.2,40.3,41.9,39.5,41.9z M30.3,48.7h-3c-0.8,0-1.5-0.7-1.5-1.5v-2.3c0-0.8,0.7-1.5,1.5-1.5h3c0.8,0,1.5,0.7,1.5,1.5v2.3
		C31.9,48,31.2,48.7,30.3,48.7z M31.9,51.8v2.3c0,0.8-0.7,1.5-1.5,1.5h-3c-0.8,0-1.5-0.7-1.5-1.5v-2.3c0-0.8,0.7-1.5,1.5-1.5h3
		C31.2,50.2,31.9,50.9,31.9,51.8z M30.3,41.9h-3c-0.8,0-1.5-0.7-1.5-1.5v-2.3c0-0.8,0.7-1.5,1.5-1.5h3c0.8,0,1.5,0.7,1.5,1.5v2.3
		C31.9,41.2,31.2,41.9,30.3,41.9z"/>
	<rect x="36.4" y="38.1" class="st0" width="3" height="2.3"/>
</g>
</svg>
