<?xml version="1.0" encoding="utf-8"?>
<!-- Generator: Adobe Illustrator 24.2.0, SVG Export Plug-In . SVG Version: 6.00 Build 0)  -->
<svg version="1.1" id="Capa_1" xmlns="http://www.w3.org/2000/svg" xmlns:xlink="http://www.w3.org/1999/xlink" x="0px" y="0px"
	 viewBox="0 0 83 82" style="enable-background:new 0 0 83 82;" xml:space="preserve">
<style type="text/css">
	.st0{fill:#044B80;}
</style>
<g>
	<circle class="st0" cx="55.5" cy="62.6" r="1"/>
	<circle class="st0" cx="27.5" cy="47.3" r="1"/>
	<path class="st0" d="M34.7,31.8C34.7,31.8,34.7,31.8,34.7,31.8c1-1.4,1.5-3.1,1.5-4.8c0-4.7-3.9-8.6-8.6-8.6s-8.6,3.9-8.6,8.6
		c0,1.7,0.5,3.4,1.4,4.8c0,0,7.2,11.7,7.2,11.7L34.7,31.8z M22.8,27c0-2.6,2.1-4.8,4.8-4.8s4.8,2.1,4.8,4.8s-2.1,4.8-4.8,4.8
		S22.8,29.7,22.8,27z"/>
	<path class="st0" d="M30.4,27c0-1.6-1.3-2.9-2.9-2.9c-1.6,0-2.9,1.3-2.9,2.9s1.3,2.9,2.9,2.9C29.1,29.9,30.4,28.6,30.4,27z"/>
	<path class="st0" d="M55.5,40c-1.6,0-2.9,1.3-2.9,2.9s1.3,2.9,2.9,2.9c1.6,0,2.9-1.3,2.9-2.9S57,40,55.5,40z"/>
	<path class="st0" d="M55.5,34.3c-4.7,0-8.6,3.9-8.6,8.6c0,1.7,0.5,3.4,1.4,4.8c0,0,7.2,11.2,7.2,11.2s7.2-11.2,7.2-11.2
		c0.9-1.4,1.4-3.1,1.4-4.8C64.1,38.2,60.2,34.3,55.5,34.3z M55.5,47.7c-2.6,0-4.8-2.1-4.8-4.8s2.1-4.8,4.8-4.8s4.8,2.1,4.8,4.8
		S58.1,47.7,55.5,47.7z"/>
	<path class="st0" d="M41.5,0.4C19.1,0.4,0.9,18.6,0.9,41c0,22.4,18.2,40.6,40.6,40.6S82.1,63.4,82.1,41
		C82.1,18.6,63.9,0.4,41.5,0.4z M40.1,63.6c-0.5,0-1-0.4-1-1s0.4-1,1-1s1,0.4,1,1S40.6,63.6,40.1,63.6z M37.7,55.9H26.2
		c-1.6,0-2.9,1.3-2.9,2.9s1.3,2.9,2.9,2.9h9.6c0.5,0,1,0.4,1,1c0,0.5-0.4,1-1,1h-9.6c-2.6,0-4.8-2.1-4.8-4.8s2.1-4.8,4.8-4.8h11.5
		c1.6,0,2.9-1.3,2.9-2.9c0-1.6-1.3-2.9-2.9-2.9h-7.4c-0.4,1.1-1.5,1.9-2.7,1.9c-1.6,0-2.9-1.3-2.9-2.9c0-1,0.6-2,1.4-2.5l-7.3-12
		C17.6,31.1,17,29.1,17,27c0-5.8,4.7-10.5,10.5-10.5c5.8,0,10.5,4.7,10.5,10.5c0,2.1-0.6,4.1-1.8,5.8l-7.3,12c0.6,0.3,1,0.9,1.2,1.5
		h7.4c2.6,0,4.8,2.1,4.8,4.8S40.3,55.9,37.7,55.9z M64.2,48.7l-7.3,11.4c0.8,0.5,1.4,1.4,1.4,2.5c0,1.6-1.3,2.9-2.9,2.9
		c-1.2,0-2.3-0.8-2.7-1.9h-8.4c-0.5,0-1-0.4-1-1c0-0.5,0.4-1,1-1h8.4c0.2-0.6,0.7-1.2,1.2-1.5l-7.3-11.4c-1.2-1.7-1.8-3.7-1.8-5.8
		c0-5.8,4.7-10.5,10.5-10.5c5.8,0,10.5,4.7,10.5,10.5C66,45,65.4,47,64.2,48.7z"/>
</g>
</svg>
