<?xml version="1.0" encoding="utf-8"?>
<!-- Generator: Adobe Illustrator 24.2.0, SVG Export Plug-In . SVG Version: 6.00 Build 0)  -->
<svg version="1.1" id="Capa_1" xmlns="http://www.w3.org/2000/svg" xmlns:xlink="http://www.w3.org/1999/xlink" x="0px" y="0px"
	 viewBox="0 0 83 82" style="enable-background:new 0 0 83 82;" xml:space="preserve">
<style type="text/css">
	.st0{fill:#044B80;}
</style>
<g>
	<path class="st0" d="M19.5,51.2v1.7h5c-0.1-0.5-0.1-1.1,0-1.7H19.5z"/>
	<rect x="19.5" y="47.9" class="st0" width="1.7" height="1.7"/>
	<path class="st0" d="M30.2,51.2c-0.5,0-0.8,0.4-0.8,0.8c0,0.5,0.4,0.8,0.8,0.8c0.5,0,0.8-0.4,0.8-0.8S30.7,51.2,30.2,51.2z"/>
	<path class="st0" d="M30.2,47.9c-2.3,0-4.1,1.9-4.1,4.1c0,2.3,1.9,4.1,4.1,4.1c2.3,0,4.1-1.9,4.1-4.1
		C34.4,49.8,32.5,47.9,30.2,47.9z M30.2,54.6c-1.4,0-2.5-1.1-2.5-2.5c0-1.4,1.1-2.5,2.5-2.5c1.4,0,2.5,1.1,2.5,2.5
		C32.7,53.4,31.6,54.6,30.2,54.6z"/>
	<polygon class="st0" points="52.6,34.7 58,34.7 57.1,31.4 52.6,31.4 	"/>
	<path class="st0" d="M59,38l-0.5-1.7h-6.7c-0.5,0-0.8-0.4-0.8-0.8v-5c0-0.5,0.4-0.8,0.8-0.8h4.8c-0.4-1-1.3-1.6-2.3-1.7h-5V38h9.1
		C58.6,38,58.8,38,59,38z"/>
	<path class="st0" d="M47.6,24.7H19.5v16.6h28.2V24.7z M24.5,37.2c0,0.5-0.4,0.8-0.8,0.8c-0.5,0-0.8-0.4-0.8-0.8v-8.3
		c0-0.5,0.4-0.8,0.8-0.8c0.5,0,0.8,0.4,0.8,0.8V37.2z M29.4,37.2c0,0.5-0.4,0.8-0.8,0.8c-0.5,0-0.8-0.4-0.8-0.8v-8.3
		c0-0.5,0.4-0.8,0.8-0.8c0.5,0,0.8,0.4,0.8,0.8V37.2z M34.4,37.2c0,0.5-0.4,0.8-0.8,0.8s-0.8-0.4-0.8-0.8v-8.3
		c0-0.5,0.4-0.8,0.8-0.8s0.8,0.4,0.8,0.8V37.2z M39.4,37.2c0,0.5-0.4,0.8-0.8,0.8s-0.8-0.4-0.8-0.8v-8.3c0-0.5,0.4-0.8,0.8-0.8
		s0.8,0.4,0.8,0.8V37.2z M44.3,37.2c0,0.5-0.4,0.8-0.8,0.8s-0.8-0.4-0.8-0.8v-8.3c0-0.5,0.4-0.8,0.8-0.8s0.8,0.4,0.8,0.8V37.2z"/>
	<path class="st0" d="M47.6,43H19.5v3.3H22c0.5,0,0.8,0.4,0.8,0.8v2.5H25c1.4-2.9,4.8-4.1,7.7-2.8c1.2,0.6,2.2,1.5,2.8,2.8h12.2V43z
		"/>
	<path class="st0" d="M62.5,46.3h1.7c0,0,0-1.4-0.1-1.7h-1.6V46.3z"/>
	<path class="st0" d="M64.2,47.9h-2.5c-0.5,0-0.8-0.4-0.8-0.8v-3.3c0-0.5,0.4-0.8,0.8-0.8h1.9c-1-2-3-3.3-5.2-3.3h-9.1v9.9h1.4
		c1.4-2.9,4.8-4.1,7.7-2.8c1.2,0.6,2.2,1.5,2.8,2.8h3V47.9z M53.4,43h-1.7c-0.5,0-0.8-0.4-0.8-0.8c0-0.5,0.4-0.8,0.8-0.8h1.7
		c0.5,0,0.8,0.4,0.8,0.8C54.3,42.6,53.9,43,53.4,43z"/>
	<path class="st0" d="M65,51.2h-3.4c0.1,0.5,0.1,1.1,0,1.7H65c0.5,0,0.8-0.4,0.8-0.8S65.5,51.2,65,51.2z"/>
	<path class="st0" d="M55.9,47.9c-2.3,0-4.1,1.9-4.1,4.1c0,2.3,1.9,4.1,4.1,4.1c2.3,0,4.1-1.9,4.1-4.1
		C60.1,49.8,58.2,47.9,55.9,47.9z M55.9,54.6c-1.4,0-2.5-1.1-2.5-2.5c0-1.4,1.1-2.5,2.5-2.5c1.4,0,2.5,1.1,2.5,2.5
		C58.4,53.4,57.3,54.6,55.9,54.6z"/>
	<path class="st0" d="M41.5,0.7C19.2,0.7,1.2,18.7,1.2,41c0,22.3,18.1,40.3,40.3,40.3S81.8,63.3,81.8,41
		C81.8,18.7,63.8,0.7,41.5,0.7z M67.4,52.9c-0.4,1-1.3,1.7-2.3,1.7h-3.9c-1.4,2.9-4.8,4.1-7.7,2.8c-1.2-0.6-2.2-1.5-2.8-2.8H35.5
		c-1.4,2.9-4.8,4.1-7.7,2.8c-1.2-0.6-2.2-1.5-2.8-2.8h-6.4c-0.5,0-0.8-0.4-0.8-0.8V23.9c0-0.5,0.4-0.8,0.8-0.8h29.8
		c0.5,0,0.8,0.4,0.8,0.8v2.5h5c1.9,0,3.5,1.2,4,3l2.6,9c3,1,5.1,3.9,5.1,7.1v4.3C67.1,50.2,67.8,51.6,67.4,52.9z"/>
	<path class="st0" d="M36,51.2c0.1,0.5,0.1,1.1,0,1.7h14.2c-0.1-0.5-0.1-1.1,0-1.7H36z"/>
	<path class="st0" d="M55.9,51.2c-0.5,0-0.8,0.4-0.8,0.8c0,0.5,0.4,0.8,0.8,0.8c0.5,0,0.8-0.4,0.8-0.8S56.4,51.2,55.9,51.2z"/>
</g>
</svg>
