<?xml version="1.0" encoding="utf-8"?>
<!-- Generator: Adobe Illustrator 24.2.0, SVG Export Plug-In . SVG Version: 6.00 Build 0)  -->
<svg version="1.1" id="Capa_1" xmlns="http://www.w3.org/2000/svg" xmlns:xlink="http://www.w3.org/1999/xlink" x="0px" y="0px"
	 viewBox="0 0 50.1 50.1" style="enable-background:new 0 0 50.1 50.1;" xml:space="preserve">
<style type="text/css">
	.st0{fill:#044B80;}
	.st1{fill:#CCCCCC;}
</style>
<g>
	<path class="st0" d="M-129.5,141.9v1.9h5.8c-0.1-0.6-0.1-1.3,0-1.9H-129.5z"/>
	<rect x="-129.5" y="138.1" class="st0" width="1.9" height="1.9"/>
	<path class="st0" d="M-117,141.9c-0.5,0-1,0.4-1,1c0,0.5,0.4,1,1,1c0.5,0,1-0.4,1-1S-116.5,141.9-117,141.9z"/>
	<path class="st0" d="M-117,138.1c-2.6,0-4.8,2.1-4.8,4.8c0,2.6,2.1,4.8,4.8,4.8c2.6,0,4.8-2.1,4.8-4.8S-114.4,138.1-117,138.1z
		 M-117,145.7c-1.6,0-2.9-1.3-2.9-2.9c0-1.6,1.3-2.9,2.9-2.9c1.6,0,2.9,1.3,2.9,2.9S-115.4,145.7-117,145.7z"/>
	<polygon class="st0" points="-91.2,122.7 -84.9,122.7 -86,118.9 -91.2,118.9 	"/>
	<path class="st0" d="M-83.8,126.6l-0.6-1.9h-7.8c-0.5,0-1-0.4-1-1v-5.7c0-0.5,0.4-1,1-1h5.6c-0.4-1.1-1.5-1.9-2.7-1.9H-95v11.5
		h10.5C-84.2,126.6-84,126.6-83.8,126.6z"/>
	<path class="st0" d="M-96.9,111.2h-32.6v19.2h32.6V111.2z M-123.7,125.6c0,0.5-0.4,1-1,1s-1-0.4-1-1V116c0-0.5,0.4-1,1-1s1,0.4,1,1
		V125.6z M-118,125.6c0,0.5-0.4,1-1,1s-1-0.4-1-1V116c0-0.5,0.4-1,1-1s1,0.4,1,1V125.6z M-112.2,125.6c0,0.5-0.4,1-1,1s-1-0.4-1-1
		V116c0-0.5,0.4-1,1-1s1,0.4,1,1V125.6z M-106.5,125.6c0,0.5-0.4,1-1,1s-1-0.4-1-1V116c0-0.5,0.4-1,1-1s1,0.4,1,1V125.6z
		 M-100.7,125.6c0,0.5-0.4,1-1,1s-1-0.4-1-1V116c0-0.5,0.4-1,1-1s1,0.4,1,1V125.6z"/>
	<path class="st0" d="M-96.9,132.3h-32.6v3.8h2.9c0.5,0,1,0.4,1,1v2.9h2.6c1.6-3.3,5.6-4.8,8.9-3.2c1.4,0.7,2.5,1.8,3.2,3.2h14.1
		V132.3z"/>
	<path class="st0" d="M-79.7,136.1h1.9c0,0,0-1.6-0.1-1.9h-1.8V136.1z"/>
	<path class="st0" d="M-77.7,138.1h-2.9c-0.5,0-1-0.4-1-1v-3.8c0-0.5,0.4-1,1-1h2.2c-1.1-2.3-3.5-3.8-6.1-3.8H-95V140h1.6
		c1.6-3.3,5.6-4.8,8.9-3.2c1.4,0.7,2.5,1.8,3.2,3.2h3.5V138.1z M-90.2,132.3h-1.9c-0.5,0-1-0.4-1-1s0.4-1,1-1h1.9c0.5,0,1,0.4,1,1
		S-89.7,132.3-90.2,132.3z"/>
	<path class="st0" d="M-76.8,141.9h-3.9c0.1,0.6,0.1,1.3,0,1.9h3.9c0.5,0,1-0.4,1-1S-76.3,141.9-76.8,141.9z"/>
	<path class="st0" d="M-87.3,138.1c-2.6,0-4.8,2.1-4.8,4.8c0,2.6,2.1,4.8,4.8,4.8c2.6,0,4.8-2.1,4.8-4.8S-84.7,138.1-87.3,138.1z
		 M-87.3,145.7c-1.6,0-2.9-1.3-2.9-2.9c0-1.6,1.3-2.9,2.9-2.9c1.6,0,2.9,1.3,2.9,2.9S-85.7,145.7-87.3,145.7z"/>
	<path class="st0" d="M-104,83.4c-25.8,0-46.7,20.9-46.7,46.7c0,25.8,20.9,46.7,46.7,46.7s46.7-20.9,46.7-46.7
		C-57.3,104.3-78.2,83.4-104,83.4z M-74.1,143.8c-0.4,1.1-1.5,1.9-2.7,1.9h-4.5c-1.6,3.3-5.6,4.8-8.9,3.2c-1.4-0.7-2.5-1.8-3.2-3.2
		H-111c-1.6,3.3-5.6,4.8-8.9,3.2c-1.4-0.7-2.5-1.8-3.2-3.2h-7.4c-0.5,0-1-0.4-1-1v-34.5c0-0.5,0.4-1,1-1h34.5c0.5,0,1,0.4,1,1v2.9
		h5.7c2.1,0,4,1.4,4.6,3.5l3,10.4c3.5,1.2,5.8,4.5,5.9,8.2v5C-74.3,140.7-73.5,142.3-74.1,143.8z"/>
	<path class="st0" d="M-110.4,141.9c0.1,0.6,0.1,1.3,0,1.9H-94c-0.1-0.6-0.1-1.3,0-1.9H-110.4z"/>
	<path class="st0" d="M-87.3,141.9c-0.5,0-1,0.4-1,1c0,0.5,0.4,1,1,1c0.5,0,1-0.4,1-1S-86.8,141.9-87.3,141.9z"/>
</g>
<g>
	<path class="st0" d="M-108.7-73.8c-1.7,0-3.4,0.8-3.4,2.6c-0.1,1.1,0.4,2.2,1.4,2.9c0.5,0.4,0.8,0.8,1.1,1.4h2
		c0.2-0.5,0.6-1,1.1-1.4c0.9-0.7,1.4-1.8,1.4-2.9C-105.2-73-107-73.8-108.7-73.8z"/>
	<path class="st0" d="M-103.6-87.1l0.1,0.3h6.1l11-19H-119c-1.4,0-2.6,1.2-2.6,2.6v14.7h15.7C-104.9-88.5-104-87.9-103.6-87.1z
		 M-119.9-102.3h29.3v1.7h-29.3V-102.3z M-119.9-98.8h27.6v1.7h-27.6V-98.8z M-119.9-95.4H-94v1.7h-25.9V-95.4z M-119.9-91.9h24.1
		v1.7h-24.1V-91.9z"/>
	<polygon class="st0" points="-96.3,-84.2 -97.2,-78.4 -92.6,-82 	"/>
	<path class="st0" d="M-101.1-83.3h2.9L-98-85h-4.6l0.6,1.2C-101.8-83.5-101.5-83.3-101.1-83.3z"/>
	<path class="st0" d="M-98.5-81.6h-2.7c-1,0-1.9-0.6-2.3-1.4l-1.6-3.3c-0.1-0.3-0.4-0.5-0.8-0.5h-18.3c-0.5,0-0.9,0.4-0.9,0.9v6.9
		h26.2L-98.5-81.6z M-119-81.6c0,0.5-0.4,0.9-0.9,0.9h-2.6c-0.5,0-0.9-0.4-0.9-0.9v-2.6c0-0.5,0.4-0.9,0.9-0.9h2.6
		c0.5,0,0.9,0.4,0.9,0.9V-81.6z M-113-81.6c0,0.5-0.4,0.9-0.9,0.9h-2.6c-0.5,0-0.9-0.4-0.9-0.9v-2.6c0-0.5,0.4-0.9,0.9-0.9h2.6
		c0.5,0,0.9,0.4,0.9,0.9V-81.6z M-107-81.6c0,0.5-0.4,0.9-0.9,0.9h-2.6c-0.5,0-0.9-0.4-0.9-0.9v-2.6c0-0.5,0.4-0.9,0.9-0.9h2.6
		c0.5,0,0.9,0.4,0.9,0.9V-81.6z"/>
	<rect x="-115.6" y="-83.3" class="st0" width="0.9" height="0.9"/>
	<rect x="-121.6" y="-83.3" class="st0" width="0.9" height="0.9"/>
	<path class="st0" d="M-101.2-131.7c-25.8,0-46.7,20.9-46.7,46.7c0,25.8,20.9,46.7,46.7,46.7c25.8,0,46.7-20.9,46.7-46.7
		C-54.5-110.8-75.4-131.7-101.2-131.7z M-76.5-105.6l-0.3,0.5v29.6c0,2.4-1.9,4.3-4.3,4.3h-9.5v9.5c0,1.4-1.2,2.6-2.6,2.6h-31
		c-1.4,0-2.6-1.2-2.6-2.6v-24.1c0-1.4,1.2-2.6,2.6-2.6h0.9v-14.7c0-2.4,1.9-4.3,4.3-4.3h33.6l1.4-2.5c0,0,0,0,0,0
		c0.7-1.2,2.3-1.7,3.5-0.9l3,1.7c0,0,0,0,0,0C-76.2-108.4-75.8-106.9-76.5-105.6z"/>
	<rect x="-97.9" y="-94.7" transform="matrix(0.5 -0.866 0.866 0.5 35.1216 -123.3693)" class="st0" width="17.2" height="5.2"/>
	<path class="st0" d="M-90.3-81.7c-0.1,0.1-0.1,0.2-0.2,0.2v0l-0.2,0.1c0.1,0.2,0.1,0.4,0.1,0.6v7.8h9.5c1.4,0,2.6-1.2,2.6-2.6
		v-26.6l-2.3,4L-90.3-81.7z"/>
	<rect x="-109.5" y="-83.3" class="st0" width="0.9" height="0.9"/>
	<path class="st0" d="M-78.3-107.7l-3-1.7c-0.2-0.1-0.4-0.1-0.7-0.1c-0.2,0.1-0.4,0.2-0.5,0.4l-3.9,6.7l4.5,2.6l3.9-6.7
		C-77.8-106.9-77.9-107.4-78.3-107.7z"/>
	<polygon class="st0" points="-92.3,-79 -92.3,-80.1 -93.7,-79 	"/>
	<path class="st0" d="M-97.8-75.7c-0.2,0.1-0.4,0.2-0.7,0.2c-0.5-0.1-0.8-0.5-0.7-1l0.1-0.7h-26v15.5c0,0.5,0.4,0.9,0.9,0.9h31
		c0.5,0,0.9-0.4,0.9-0.9v-15.5h-3.5L-97.8-75.7z M-115.6-69.5h-3.4v-1.7h3.4V-69.5z M-115.1-73.1l-3-1.7l0.9-1.5l3,1.7L-115.1-73.1z
		 M-106.1-62.6h-5.2v-1.7h5.2V-62.6z M-105.4-67.1c-0.5,0.5-0.7,0.7-0.7,1c0,0.5-0.4,0.9-0.9,0.9h-3.4c-0.5,0-0.9-0.4-0.9-0.9
		c0-0.3-0.2-0.5-0.7-1c-1.3-1-2-2.6-1.9-4.2c0-2.8,2.6-4.3,5.2-4.3s5.2,1.5,5.2,4.3C-103.4-69.6-104.1-68.1-105.4-67.1z
		 M-103.1-74.6l3-1.7l0.9,1.5l-3,1.7L-103.1-74.6z M-98.3-69.5h-3.4v-1.7h3.4V-69.5z"/>
</g>
<g id="Capa_3">
</g>
<g id="Capa_4">
</g>
<g>
	<path class="st0" d="M120.8,9.3c1,0,1.7-0.8,1.7-1.7V2.3c0-1-0.8-1.7-1.7-1.7c-1,0-1.7,0.8-1.7,1.7v5.2
		C119.1,8.5,119.9,9.3,120.8,9.3z"/>
	<rect x="127.8" y="38.2" class="st0" width="3.5" height="2.6"/>
	<path class="st0" d="M156.7,5.8h-4.4v1.7c0,1.9-1.6,3.5-3.5,3.5c-1.9,0-3.5-1.6-3.5-3.5V5.8h-7v1.7c0,1.9-1.6,3.5-3.5,3.5
		c-1.9,0-3.5-1.6-3.5-3.5V5.8h-7v1.7c0,1.9-1.6,3.5-3.5,3.5c-1.9,0-3.5-1.6-3.5-3.5V5.8H113c-1.4,0-2.6,1.2-2.6,2.6v6.1h49V8.4
		C159.3,7,158.1,5.8,156.7,5.8z"/>
	<rect x="127.8" y="30.3" class="st0" width="3.5" height="2.6"/>
	<path class="st0" d="M134.8,9.3c1,0,1.7-0.8,1.7-1.7V2.3c0-1-0.8-1.7-1.7-1.7c-1,0-1.7,0.8-1.7,1.7v5.2
		C133.1,8.5,133.9,9.3,134.8,9.3z"/>
	<rect x="138.3" y="22.4" class="st0" width="3.5" height="2.6"/>
	<path class="st0" d="M148.8,9.3c1,0,1.7-0.8,1.7-1.7V2.3c0-1-0.8-1.7-1.7-1.7c-1,0-1.7,0.8-1.7,1.7v5.2
		C147.1,8.5,147.9,9.3,148.8,9.3z"/>
	<path class="st0" d="M149.7,30.3c-5.3,0-9.6,4.3-9.6,9.6s4.3,9.6,9.6,9.6c5.3,0,9.6-4.3,9.6-9.6C159.3,34.6,155,30.3,149.7,30.3z
		 M156,37.5l-7.4,7.4c-0.3,0.3-0.9,0.3-1.2,0l-3.7-3.7c-0.3-0.3-0.3-0.9,0-1.2c0.3-0.3,0.9-0.4,1.2,0l3.1,3.1l6.8-6.8
		c0.3-0.3,0.9-0.3,1.2,0C156.3,36.6,156.3,37.1,156,37.5z"/>
	<rect x="148.8" y="22.4" class="st0" width="3.5" height="2.6"/>
	<rect x="117.3" y="38.2" class="st0" width="3.5" height="2.6"/>
	<rect x="117.3" y="22.4" class="st0" width="3.5" height="2.6"/>
	<rect x="117.3" y="30.3" class="st0" width="3.5" height="2.6"/>
	<path class="st0" d="M133.5-21.1c-25.8,0-46.7,20.9-46.7,46.7s20.9,46.7,46.7,46.7s46.7-20.9,46.7-46.7S159.3-21.1,133.5-21.1z
		 M149.7,51.3c-6.3,0-11.4-5.1-11.4-11.4s5.1-11.4,11.4-11.4c6.3,0,11.4,5.1,11.4,11.4C161.1,46.2,156,51.3,149.7,51.3z M138.3,28.6
		h3.5c0.5,0,0.9,0.4,0.9,0.9s-0.4,0.9-0.9,0.9h-3.5v2.6c0.5,0,0.9,0.4,0.9,0.9s-0.4,0.9-0.9,0.9c-1,0-1.7-0.8-1.7-1.7v-2.6
		C136.6,29.3,137.4,28.6,138.3,28.6z M136.6,25.1v-2.6c0-1,0.8-1.7,1.7-1.7h3.5c1,0,1.7,0.8,1.7,1.7v2.6c0,1-0.8,1.7-1.7,1.7h-3.5
		C137.4,26.8,136.6,26,136.6,25.1z M147.1,25.1v-2.6c0-1,0.8-1.7,1.7-1.7h3.5c1,0,1.7,0.8,1.7,1.7v2.6c0,1-0.8,1.7-1.7,1.7h-3.5
		C147.9,26.8,147.1,26,147.1,25.1z M161.1,31.2c0,0.5-0.4,0.9-0.9,0.9c-0.5,0-0.9-0.4-0.9-0.9V16.3h-49v27.1c0,1.4,1.2,2.6,2.6,2.6
		h24.5c0.5,0,0.9,0.4,0.9,0.9s-0.4,0.9-0.9,0.9H113c-2.4,0-4.4-2-4.4-4.4v-35c0-2.4,2-4.4,4.4-4.4h4.4V2.3c0-1.9,1.6-3.5,3.5-3.5
		c1.9,0,3.5,1.6,3.5,3.5v1.7h7V2.3c0-1.9,1.6-3.5,3.5-3.5c1.9,0,3.5,1.6,3.5,3.5v1.7h7V2.3c0-1.9,1.6-3.5,3.5-3.5
		c1.9,0,3.5,1.6,3.5,3.5v1.7h4.4c2.4,0,4.4,2,4.4,4.4V31.2z M131.3,34.7h-3.5c-1,0-1.7-0.8-1.7-1.7v-2.6c0-1,0.8-1.7,1.7-1.7h3.5
		c1,0,1.7,0.8,1.7,1.7v2.6C133.1,33.9,132.3,34.7,131.3,34.7z M133.1,38.2v2.6c0,1-0.8,1.7-1.7,1.7h-3.5c-1,0-1.7-0.8-1.7-1.7v-2.6
		c0-1,0.8-1.7,1.7-1.7h3.5C132.3,36.4,133.1,37.2,133.1,38.2z M131.3,26.8h-3.5c-1,0-1.7-0.8-1.7-1.7v-2.6c0-1,0.8-1.7,1.7-1.7h3.5
		c1,0,1.7,0.8,1.7,1.7v2.6C133.1,26,132.3,26.8,131.3,26.8z M120.8,34.7h-3.5c-1,0-1.7-0.8-1.7-1.7v-2.6c0-1,0.8-1.7,1.7-1.7h3.5
		c1,0,1.7,0.8,1.7,1.7v2.6C122.6,33.9,121.8,34.7,120.8,34.7z M122.6,38.2v2.6c0,1-0.8,1.7-1.7,1.7h-3.5c-1,0-1.7-0.8-1.7-1.7v-2.6
		c0-1,0.8-1.7,1.7-1.7h3.5C121.8,36.4,122.6,37.2,122.6,38.2z M120.8,26.8h-3.5c-1,0-1.7-0.8-1.7-1.7v-2.6c0-1,0.8-1.7,1.7-1.7h3.5
		c1,0,1.7,0.8,1.7,1.7v2.6C122.6,26,121.8,26.8,120.8,26.8z"/>
	<rect x="127.8" y="22.4" class="st0" width="3.5" height="2.6"/>
</g>
<g>
	<path class="st1" d="M41.3,32.3c-2.5-2.5-5.5-4.4-8.8-5.5c4-2.7,6.4-7.6,5.6-13C37.4,8,32.5,3.3,26.6,2.6
		c-8-0.9-14.9,5.4-14.9,13.2c0,4.5,2.3,8.6,5.8,11c-3.3,1.1-6.2,3-8.8,5.5c-3.9,3.9-6.2,8.9-6.7,14.4c-0.1,1,0.8,1.9,1.8,1.9
		c0.9,0,1.7-0.7,1.8-1.6c0.8-9.9,9.2-17.8,19.4-17.8c10.2,0,18.5,7.8,19.4,17.8c0.1,0.9,0.9,1.6,1.8,1.6c1,0,1.9-0.9,1.8-1.9
		C47.6,41.2,45.2,36.2,41.3,32.3z M25.1,25.6c-5.4,0-9.7-4.4-9.7-9.7c0-5.4,4.4-9.7,9.7-9.7s9.7,4.4,9.7,9.7
		C34.8,21.2,30.4,25.6,25.1,25.6z"/>
</g>
</svg>
