<?xml version="1.0" encoding="utf-8"?>
<!-- Generator: Adobe Illustrator 24.2.0, SVG Export Plug-In . SVG Version: 6.00 Build 0)  -->
<svg version="1.1" id="Capa_1" xmlns="http://www.w3.org/2000/svg" xmlns:xlink="http://www.w3.org/1999/xlink" x="0px" y="0px"
	 viewBox="0 0 83 82" style="enable-background:new 0 0 83 82;" xml:space="preserve">
<style type="text/css">
	.st0{fill:#044B80;}
</style>
<g>
	<path class="st0" d="M28.6,46.5c-2.2,0-4.1,1.4-4.7,3.4h9.4C32.7,47.9,30.8,46.5,28.6,46.5z"/>
	<path class="st0" d="M22.4,49.4c0.5-1.7,1.8-3.1,3.4-3.9c-1.1-0.9-1.9-2.2-1.9-3.7c0-2.6,2.1-4.7,4.7-4.7s4.7,2.1,4.7,4.7
		c0,1.5-0.7,2.9-1.9,3.7c1.6,0.8,2.9,2.2,3.4,3.9c0.6-0.4,1-1.1,1-1.9v-9.6c0-1.3-1.1-2.4-2.4-2.4h-9.6c-1.3,0-2.4,1.1-2.4,2.4v9.6
		C21.4,48.3,21.8,49,22.4,49.4z"/>
	<path class="st0" d="M58.2,20.3c-5.5,0-10,4.5-10,10c0,5.5,4.5,10,10,10c5.5,0,10-4.5,10-10C68.2,24.8,63.7,20.3,58.2,20.3z
		 M63.3,28.7l-5.6,5.6c-0.4,0.4-0.8,0.5-1.3,0.5s-0.9-0.2-1.3-0.5L53,32.1c-0.3-0.3-0.3-0.8,0-1.1c0.3-0.3,0.8-0.3,1.1,0l2.2,2.2
		c0.1,0.1,0.2,0.1,0.3,0l5.6-5.6c0.3-0.3,0.8-0.3,1.1,0C63.6,27.8,63.6,28.3,63.3,28.7z"/>
	<path class="st0" d="M31.7,41.8c0-1.7-1.4-3.1-3.1-3.1s-3.1,1.4-3.1,3.1c0,1.7,1.4,3.1,3.1,3.1S31.7,43.5,31.7,41.8z"/>
	<path class="st0" d="M41.5,0.4C19.1,0.4,0.9,18.6,0.9,41c0,22.4,18.2,40.6,40.6,40.6S82.1,63.4,82.1,41
		C82.1,18.6,63.9,0.4,41.5,0.4z M63.4,58.8c0,2.2-1.8,4-4,4H19c-2.2,0-4-1.8-4-4V33.1c0-2.2,1.8-4,4-4h25.1c0.4,0,0.8,0.4,0.8,0.8
		c0,0.4-0.4,0.8-0.8,0.8H19c-1.3,0-2.4,1.1-2.4,2.4v25.7c0,1.3,1.1,2.4,2.4,2.4h40.4c1.3,0,2.4-1.1,2.4-2.4V43.5
		c0-0.4,0.4-0.8,0.8-0.8c0.4,0,0.8,0.4,0.8,0.8V58.8z M57.8,54.7H20.6c-0.4,0-0.8-0.4-0.8-0.8c0-0.4,0.4-0.8,0.8-0.8h37.2
		c0.4,0,0.8,0.4,0.8,0.8C58.6,54.4,58.2,54.7,57.8,54.7z M58.6,57.2c0,0.4-0.4,0.8-0.8,0.8H20.6c-0.4,0-0.8-0.4-0.8-0.8
		c0-0.4,0.4-0.8,0.8-0.8h37.2C58.2,56.3,58.6,56.7,58.6,57.2z M19.8,47.5v-9.6c0-2.2,1.8-4,4-4h9.6c2.2,0,4,1.8,4,4v9.6
		c0,2.2-2,4.1-4,4h-9.6c-0.5,0-0.8-0.1-1.1-0.2C21.1,50.9,19.8,49.3,19.8,47.5z M57.8,51.5H41.5c-0.4,0-0.8-0.4-0.8-0.8
		c0-0.4,0.4-0.8,0.8-0.8h16.3c0.4,0,0.8,0.4,0.8,0.8C58.6,51.2,58.2,51.5,57.8,51.5z M57.8,48.3H41.5c-0.4,0-0.8-0.4-0.8-0.8
		c0-0.4,0.4-0.8,0.8-0.8h16.3c0.4,0,0.8,0.4,0.8,0.8C58.6,48,58.2,48.3,57.8,48.3z M58.2,42c-3.1,0-6-1.3-8.1-3.3h-8.6
		c-0.4,0-0.8-0.4-0.8-0.8c0-0.4,0.4-0.8,0.8-0.8h7.2c-0.4-0.5-0.7-1-1-1.6h-6.2c-0.4,0-0.8-0.4-0.8-0.8s0.4-0.8,0.8-0.8h5.6
		c-0.4-1.1-0.6-2.3-0.6-3.6c0-6.4,5.2-11.7,11.7-11.7c6.4,0,11.7,5.2,11.7,11.7C69.8,36.8,64.6,42,58.2,42z"/>
</g>
</svg>
