<?xml version="1.0" encoding="utf-8"?>
<!-- Generator: Adobe Illustrator 24.2.0, SVG Export Plug-In . SVG Version: 6.00 Build 0)  -->
<svg version="1.1" id="Capa_1" xmlns="http://www.w3.org/2000/svg" xmlns:xlink="http://www.w3.org/1999/xlink" x="0px" y="0px"
	 viewBox="0 0 193 58.7" style="enable-background:new 0 0 193 58.7;" xml:space="preserve">
<style type="text/css">
	.st0{display:none;}
	.st1{display:inline;}
	.st2{fill:none;}
	.st3{fill:#00549E;}
	.st4{fill:#DD7F03;}
	.st5{fill:#D38041;}
	.st6{stroke:#FFFFFF;stroke-width:0.6736;stroke-miterlimit:10;}
	.st7{fill:#DD7F03;stroke:#F7F6F5;stroke-width:1.3471;stroke-miterlimit:10;}
	.st8{fill:#FFFFFF;}
	.st9{fill:#F9F9F9;}
	.st10{fill:#0C609D;}
	.st11{opacity:0.3;fill:#FFFFFF;enable-background:new    ;}
	.st12{fill:#476CA4;fill-opacity:0.2;}
</style>
<g class="st0">
	<g class="st1">
		<rect x="-4.1" y="-3.3" class="st2" width="201.2" height="57.5"/>
		<g>
			<g>
				<g>
					<path class="st3" d="M25.3,34.7c0,1.8-0.9,3.1-2.7,4c-1.3,0.7-3,1-5,1H9.5c-2.1,0-4-0.3-5.4-0.9c-2-0.8-3-2.2-3-4V25
						c0-1.8,1-3,3-4c1.6-0.7,3.4-0.9,5.3-0.9h3.2c0.8,0,1.3,0.5,1.3,1.4c0,1-0.4,1.4-1.3,1.4h-0.5h-0.3h-0.2c-0.1,0-0.2,0-0.2,0
						c-0.3,0-0.5,0-0.7,0s-0.3,0-0.5,0c-3.9,0-5.8,0.7-5.8,2v9.8c0,1.3,1.6,2,4.8,2h8.1c0.8,0,1.6-0.2,2.4-0.4
						c1.1-0.3,1.7-0.8,1.7-1.5v-5c0-0.6,0.3-1,0.8-1.2c0.3-0.1,0.8-0.1,1.5-0.1c0.8,0,1.3,0.4,1.3,1.3v4.9
						C25,34.7,25.3,34.7,25.3,34.7z"/>
					<path class="st3" d="M48.7,35c0,3.1-3.3,4.6-9.8,4.6c-0.2,0-0.4,0-0.7,0s-0.6,0-1,0c0,0-0.1,0-0.2,0h-0.2h-0.3h-0.4h-0.8
						c-5.6,0-8.2-1.5-8.2-4.6v-9.5c0-0.8,0.4-1.3,1.3-1.3c0.8,0,1.3,0,1.4,0.1c0.4,0.2,0.7,0.6,0.7,1.2v9.6c0,1.2,1.6,1.8,4.9,1.8h5
						c3.2,0,4.8-0.6,4.8-1.7v-9.7c0-0.6,0.3-1,0.7-1.2c0.2-0.1,0.7-0.1,1.5-0.1s1.3,0.4,1.3,1.3L48.7,35L48.7,35z"/>
					<path class="st3" d="M73.6,35c0,3.1-2.4,4.6-7,4.6h-8.3c-1.8,0-3.3-0.3-4.6-1c-1.8-0.8-2.6-2-2.6-3.5v-1.9
						c0-1.6,0.8-2.8,2.5-3.6c1.3-0.6,2.8-0.9,4.6-0.9h12c-0.2-1.1-1.7-1.6-4.6-1.6c-0.1,0-0.3,0-0.4,0s-0.3,0-0.6,0c0,0-0.1,0-0.2,0
						h-0.2h-0.3h-0.4c-0.8,0-1.3-0.5-1.3-1.6c0-0.8,0.4-1.3,1.3-1.3c2.7,0,4.8,0.2,6.2,0.6c2.4,0.7,3.7,2.1,3.7,4.2L73.6,35L73.6,35
						z M70.3,34.2c0-0.2,0-0.3,0-0.6s0-0.5,0-0.8s0-0.6,0-0.8c0-0.3,0-0.4,0-0.6H58.2c-0.7,0-1.4,0.2-2.2,0.4
						c-1,0.3-1.4,0.8-1.4,1.3v2.1c0,0.6,0.5,1,1.5,1.3c0.7,0.3,1.4,0.3,2.3,0.3h8.4c1.3,0,2.1-0.1,2.6-0.3
						C70,36.1,70.3,35.4,70.3,34.2z"/>
					<path class="st3" d="M85.5,25.9c0,0.8-0.5,1.3-1.5,1.3c-0.2,0-0.3,0-0.6,0s-0.5,0-0.6,0c-2.6,0-4,0.7-4,1.9v9.4
						c0,0.6-0.3,1-0.7,1.2c-0.2,0.1-0.7,0.1-1.5,0.1s-1.2-0.4-1.2-1.3V29c0-2,1-3.4,3.1-4.1c1.3-0.4,3.1-0.7,5.6-0.7
						C85.1,24.2,85.5,24.8,85.5,25.9z"/>
					<path class="st3" d="M107.9,34.9c0,1.7-1,2.9-3.1,3.8c-1.4,0.7-3.2,1-5.2,1h-5.2c-5.2,0-8-1.4-8.2-4.4c0-0.5-0.1-1.2-0.1-2
						c0-1.7,0-3,0.1-4.1c0.2-3.2,2.9-4.8,8.1-4.8h10.2v-3c0-0.8,0.4-1.3,1.3-1.3c0.6,0,1.1,0.1,1.4,0.2c0.4,0.2,0.7,0.5,0.7,1.2
						L107.9,34.9L107.9,34.9z M104.5,34.9v-7.7H94.2c-3,0-4.5,0.7-4.5,2v5.5c0,1,0.6,1.7,1.7,1.9c0.5,0.2,1.4,0.2,2.9,0.2h4.9
						C102.7,36.8,104.5,36.1,104.5,34.9z"/>
					<path class="st3" d="M114.6,22.1c0,0.6-0.3,1-0.7,1.3c-0.4,0.3-0.9,0.4-1.5,0.4s-1.1-0.2-1.5-0.4c-0.5-0.3-0.7-0.8-0.7-1.3
						c0-0.6,0.3-1,0.7-1.3s0.9-0.4,1.5-0.4s1.1,0.2,1.5,0.4C114.3,21.1,114.6,21.6,114.6,22.1z M114.1,38.4c0,0.8-0.4,1.3-1.3,1.3
						c-0.8,0-1.3,0-1.4-0.1c-0.4-0.2-0.7-0.6-0.7-1.2v-13c0-0.8,0.4-1.3,1.3-1.3c0.8,0,1.3,0,1.4,0.1c0.4,0.2,0.7,0.5,0.7,1.2V38.4z
						"/>
					<path class="st3" d="M139.2,35c0,3.1-2.4,4.6-7,4.6h-8.3c-1.8,0-3.3-0.3-4.6-1c-1.8-0.8-2.6-2-2.6-3.5v-1.9
						c0-1.6,0.8-2.8,2.5-3.6c1.3-0.6,2.8-0.9,4.6-0.9h12c-0.2-1.1-1.7-1.6-4.6-1.6c-0.1,0-0.3,0-0.4,0c-0.1,0-0.3,0-0.6,0
						c0,0-0.1,0-0.2,0h-0.2h-0.3h-0.4c-0.8,0-1.3-0.5-1.3-1.6c0-0.8,0.4-1.3,1.3-1.3c2.7,0,4.8,0.2,6.2,0.6c2.4,0.7,3.7,2.1,3.7,4.2
						L139.2,35L139.2,35z M135.9,34.2c0-0.2,0-0.3,0-0.6s0-0.5,0-0.8s0-0.6,0-0.8c0-0.3,0-0.4,0-0.6h-12c-0.7,0-1.4,0.2-2.2,0.4
						c-1,0.3-1.4,0.8-1.4,1.3v2.1c0,0.6,0.5,1,1.5,1.3c0.7,0.3,1.4,0.3,2.3,0.3h8.4c1.3,0,2.1-0.1,2.6-0.3
						C135.5,36.1,135.9,35.4,135.9,34.2z"/>
					<path class="st3" d="M162.6,38.4c0,0.8-0.4,1.3-1.3,1.3c-0.8,0-1.3,0-1.4-0.1c-0.4-0.2-0.7-0.6-0.7-1.2v-9.8
						c0-0.7-0.6-1.2-1.8-1.3c-0.2-0.1-0.5-0.1-0.9-0.1s-0.9,0-1.6,0h-5.8c-0.6,0-1.1,0-1.5,0s-0.8,0.1-0.9,0.1
						c-1.1,0.3-1.7,0.7-1.7,1.3v9.8c0,0.8-0.4,1.3-1.3,1.3c-0.8,0-1.3,0-1.4-0.1c-0.4-0.2-0.7-0.6-0.7-1.2v-9.8
						c0-2.9,2.6-4.4,7.8-4.4h5.6c5.1,0,7.7,1.4,7.7,4.4L162.6,38.4L162.6,38.4z"/>
				</g>
				<path class="st4" d="M15.6,30.4c0-1,0.8-1.9,1.9-1.9s1.9,0.8,1.9,1.9s-0.9,1.8-2,1.8S15.6,31.4,15.6,30.4z"/>
				<g>
					<path class="st4" d="M5.8,46.1c0-0.3,0.1-0.4,0.3-0.6c0.2-0.2,0.3-0.3,0.6-0.3h6.7c0.3,0,0.6,0.1,0.8,0.2
						c0.3,0.1,0.5,0.3,0.7,0.4c0.2,0.2,0.3,0.4,0.4,0.7c0.1,0.3,0.2,0.5,0.2,0.8v0.4c0,0.3-0.1,0.6-0.2,0.8
						c-0.1,0.3-0.3,0.5-0.4,0.7c-0.2,0.2-0.4,0.3-0.7,0.4c-0.3,0.1-0.5,0.2-0.8,0.2H4.2c-0.5,0-0.9-0.1-1.3-0.3
						C2.6,49.2,2.2,49,2,48.6c-0.3-0.3-0.5-0.8-0.6-1.3c-0.2-0.4-0.3-0.9-0.3-1.3c0-0.4,0.1-0.9,0.3-1.3s0.3-0.8,0.7-1.3
						c0.3-0.3,0.6-0.7,1-0.9c0.4-0.3,0.8-0.3,1.3-0.3h10.2c0.3,0,0.4,0.1,0.6,0.3s0.3,0.3,0.3,0.6s-0.1,0.4-0.3,0.6
						C15,43.9,14.9,44,14.6,44H4.8c-0.4,0-0.8,0.1-1,0.3c-0.3,0.2-0.4,0.3-0.6,0.5c-0.2,0.3-0.3,0.4-0.3,0.7c0,0.4,0,0.6,0,0.8
						s0,0.4,0.1,0.7s0.2,0.5,0.3,0.7c0.2,0.3,0.3,0.4,0.6,0.5c0.3,0.2,0.6,0.3,1,0.3h8.5c0.2,0,0.3-0.1,0.3-0.2
						c0.1-0.2,0.2-0.3,0.2-0.4c0-0.2-0.1-0.3-0.2-0.4c-0.1-0.2-0.3-0.2-0.4-0.2H6.7c-0.3,0-0.4-0.1-0.6-0.3
						C5.8,46.5,5.8,46.4,5.8,46.1z"/>
					<path class="st4" d="M17.2,43.1c0-0.3,0.1-0.4,0.3-0.6c0.2-0.2,0.3-0.3,0.6-0.3h10.5c0.3,0,0.7,0.1,0.9,0.2
						c0.3,0.1,0.5,0.3,0.8,0.5c0.3,0.3,0.4,0.4,0.5,0.8c0.1,0.3,0.2,0.6,0.2,0.9s-0.1,0.7-0.2,0.9c-0.1,0.3-0.3,0.5-0.5,0.8
						c-0.3,0.3-0.5,0.3-0.8,0.5c-0.3,0.1-0.6,0.2-0.9,0.2h-9.2c-0.2,0-0.3,0.1-0.4,0.3c-0.1,0.1-0.2,0.3-0.2,0.4v1.5
						c0,0.3-0.1,0.4-0.3,0.6c-0.2,0.2-0.3,0.3-0.6,0.3s-0.4-0.1-0.6-0.3c-0.1-0.2-0.2-0.4-0.2-0.6v-1.7c0-0.3,0.1-0.6,0.2-0.8
						c0.1-0.3,0.3-0.5,0.4-0.7c0.2-0.2,0.4-0.3,0.7-0.4c0.3-0.1,0.5-0.2,0.8-0.2h9.3c0.2,0,0.3-0.1,0.5-0.2c0.2-0.1,0.2-0.3,0.2-0.5
						s-0.1-0.3-0.2-0.4c-0.2-0.2-0.3-0.2-0.5-0.2H18c-0.3,0-0.4-0.1-0.6-0.3C17.3,43.6,17.2,43.3,17.2,43.1z"/>
					<path class="st4" d="M34.1,46.8c-0.3-0.1-0.5-0.3-0.8-0.5C33,46,33,45.9,32.8,45.5c-0.1-0.3-0.2-0.6-0.2-0.9
						c0-0.3,0.1-0.7,0.2-0.9c0.1-0.3,0.3-0.5,0.5-0.8c0.3-0.3,0.4-0.3,0.8-0.5c0.3-0.1,0.6-0.2,0.9-0.2h10.7c0.3,0,0.4,0.1,0.6,0.3
						s0.3,0.3,0.3,0.6s-0.1,0.4-0.3,0.6C46.1,43.9,46,44,45.7,44H34.9c-0.2,0-0.3,0.1-0.5,0.2c-0.2,0.1-0.2,0.3-0.2,0.5
						s0.1,0.3,0.2,0.4c0.2,0.2,0.3,0.2,0.5,0.2h9.7c0.3,0,0.7,0.1,0.9,0.2c0.3,0.1,0.5,0.3,0.8,0.5c0.3,0.3,0.3,0.4,0.5,0.8
						c0.1,0.3,0.2,0.6,0.2,0.9c0,0.3-0.1,0.7-0.2,0.9c-0.1,0.3-0.3,0.5-0.5,0.8c-0.3,0.3-0.4,0.3-0.8,0.5c-0.3,0.1-0.6,0.2-0.9,0.2
						H34c-0.3,0-0.4-0.1-0.6-0.3s-0.3-0.3-0.3-0.6s0.1-0.4,0.3-0.6c0.2-0.2,0.3-0.3,0.6-0.3h10.7c0.2,0,0.3-0.1,0.4-0.2
						c0.2-0.1,0.2-0.3,0.2-0.4c0-0.2-0.1-0.3-0.2-0.5C44.9,47,44.8,47,44.7,47H35C34.7,47,34.4,46.9,34.1,46.8z"/>
				</g>
			</g>
			<path class="st3" d="M138.8,19.7c0,0.2-0.1,0.1-1.3,1.2c-0.4,0.4-0.9,0.8-1.3,1.2c-0.3,0.3-0.8,0.7-1.3,0.8
				c-0.8,0.3-2.1-0.3-1.7-1.3c0.2-0.3,0.3-0.6,0.6-0.8c0.2-0.2,0.3-0.4,0.5-0.6c0.3-0.4,0.7-0.8,1-1.2c0.1-0.1,0.2-0.2,0.2-0.3
				c0.2-0.1,0.8-1,1.1-1s1,0.8,1.2,1C138.1,19,138.8,19.5,138.8,19.7z"/>
		</g>
		<g>
			<path class="st3" d="M173.2,25.9c0,2.6-2.1,4.7-4.7,4.7s-4.7-2.1-4.7-4.7s2.1-4.7,4.7-4.7C171.1,21.1,173.2,23.2,173.2,25.9z"/>
			<path class="st3" d="M191.9,25.9c0,2.6-2.1,4.7-4.7,4.7c-2.6,0-4.7-2.1-4.7-4.7s2.1-4.7,4.7-4.7
				C189.8,21.1,191.9,23.2,191.9,25.9z"/>
			<path class="st5" d="M177.7,19.5c-5.6,0.1-10,3.6-10,7.9s4.5,7.8,10,7.9V19.5z"/>
			<path class="st5" d="M178.2,19.5c5.6,0.1,10,3.6,10,7.9s-4.5,7.8-10,7.9V19.5z"/>
			<rect x="177.7" y="15.3" class="st6" width="0.4" height="1.9"/>
			<g>
				<rect x="176.4" y="-4" class="st4" width="1.8" height="3.5"/>
				<rect x="166.8" y="5.8" class="st4" width="3.5" height="1.9"/>
				<rect x="184" y="5.8" class="st4" width="3.7" height="1.9"/>
			</g>
			<path class="st3" d="M177.2,12.3c-3.3,0-6-2.7-6-6s2.7-6,6-6s6,2.7,6,6S180.5,12.3,177.2,12.3z"/>
			<path class="st7" d="M173.8,6.3c0-1.9,1.6-3.4,3.4-3.4c1.9,0,3.4,1.6,3.4,3.4c0,1.9-1.5,3.4-3.4,3.4
				C175.3,9.8,173.8,8.2,173.8,6.3z"/>
			<path class="st8" d="M175.7,5c0-0.7,0.5-1.2,1.2-1.2s1.2,0.5,1.2,1.2s-0.5,1.2-1.2,1.2S175.7,5.7,175.7,5z"/>
			<path class="st8" d="M177.4,6.5c0-0.4,0.3-0.8,0.8-0.8S179,6,179,6.5s-0.3,0.8-0.8,0.8S177.4,6.9,177.4,6.5z"/>
			<path class="st9" d="M177.2,44.4c-0.1,0-0.2,0-0.3,0c-0.6-0.2-1.3-0.8-2.1-1.6c-1-1.2-1.9-2.7-2.7-4.2l-0.3-0.5
				c-1-1.8-1.8-3.5-2.4-5.3c-0.3-1-0.6-2-0.8-3.1c-0.7-2.9-1-5.7-1.1-8.2c0-0.8-0.1-1.8,0.3-2.4c0.3-0.6,1.3-1,2.2-1.4
				c0.8-0.3,1.6-0.6,2.4-0.8c0.4-0.2,0.8-0.3,1.3-0.4c0.5-0.2,0.9-0.3,1.3-0.5c0.7-0.3,1.3-0.6,1.9-0.7c0.2,0,0.4-0.1,0.6-0.1
				c1,0,2,0.4,2.9,0.8c0.8,0.3,1.7,0.7,2.5,0.9c1.8,0.6,3.4,1.1,4.6,2.1c0.8,0.6,1,1.5,0.8,2.9c-0.3,1.9-0.8,3.9-1.3,5.7
				c-1,3.4-2.4,7.7-4.8,11.4c-1,1.6-1.9,2.7-2.8,3.6C179.2,43.2,178.1,44.4,177.2,44.4z"/>
			<path class="st4" d="M188.7,17.7c-2.2-1.6-5-2.2-7.5-3.2c-1.4-0.6-2.9-1.1-4.5-0.8c-1.2,0.3-2.4,0.8-3.4,1.3
				c-1.3,0.4-2.5,0.8-3.8,1.3c-1.1,0.5-2.3,1-2.9,2.1c-0.6,0.9-0.5,2.1-0.5,3.2c0.1,2.8,0.6,5.7,1.1,8.4c0.3,1.1,0.5,2.2,0.9,3.3
				c0.7,1.9,1.5,3.8,2.4,5.6c0.9,1.7,1.9,3.5,3.2,5c0.7,0.8,1.8,1.7,2.8,2c1.7,0.5,3.2-0.9,4.3-2c1.2-1.2,2.1-2.4,2.9-3.9
				c2.3-3.6,3.8-7.7,5-11.9c0.6-1.9,1.1-4,1.3-6C190.3,20.5,190,18.7,188.7,17.7z M188.3,21.8c-0.3,1.9-0.8,3.9-1.3,5.7
				c-1,3.4-2.4,7.7-4.8,11.4c-0.9,1.5-1.8,2.6-2.7,3.5c-0.5,0.5-1.6,1.6-2.3,1.6c-0.1,0-0.1,0-0.2,0c-0.5-0.2-1.3-0.8-1.9-1.4
				c-1-1.2-1.9-2.7-2.7-4.1l-0.3-0.5c-1-1.8-1.8-3.5-2.4-5.2c-0.3-1-0.6-2-0.8-3c-0.7-2.9-1-5.7-1.1-8.1c0-0.8-0.1-1.7,0.3-2.2
				c0.3-0.5,1.2-0.9,2-1.3c0.8-0.3,1.5-0.6,2.4-0.8c0.4-0.2,0.8-0.3,1.3-0.4c0.5-0.2,0.9-0.3,1.3-0.6c0.7-0.3,1.3-0.6,1.9-0.7
				c0.2,0,0.3-0.1,0.6-0.1c0.9,0,1.9,0.3,2.9,0.8c0.8,0.3,1.7,0.7,2.5,0.9c1.7,0.6,3.3,1.1,4.5,2C188.2,19.6,188.4,20.6,188.3,21.8z
				"/>
			<path class="st10" d="M182.3,22.5h-8.8l-2.4,2.4c0,0,4.2,7.8,6.8,7.8s6.7-7.8,6.7-7.8L182.3,22.5z M177.9,32.4
				c-2.5,0-6.6-7.5-6.6-7.5l2.2-2.3h8.7l2.2,2.2C184.4,24.8,180.3,32.4,177.9,32.4z"/>
			<path class="st3" d="M182.1,23h-8.4l-1.9,1.9c0,0,3.8,7,6.1,7s6.1-7.1,6.1-7.1L182.1,23z M180.9,28.4c0,0.1-0.1,0.2-0.2,0.2h-4.6
				c-0.3,0-0.6-0.1-0.8-0.2c-0.3-0.1-0.5-0.3-0.7-0.4s-0.3-0.4-0.4-0.7c-0.1-0.3-0.2-0.6-0.2-0.8c0-0.3,0.1-0.6,0.2-0.8
				c0.1-0.3,0.3-0.5,0.4-0.7c0.2-0.2,0.4-0.3,0.7-0.4s0.5-0.2,0.8-0.2h4.5c0.1,0,0.2,0.1,0.2,0.2V25c0,0.1-0.1,0.2-0.2,0.2h-2.9
				c-0.2,0-0.3,0-0.3,0.1c-0.1,0-0.2,0.1-0.3,0.2s-0.1,0.2-0.1,0.3s0,0.3,0,0.5V27c0,0.3,0,0.4,0.1,0.5c0,0.2,0.1,0.3,0.2,0.3
				c0.1,0.1,0.2,0.2,0.3,0.2s0.2,0.1,0.3,0.1h1.1v-1.9c0-0.1,0.1-0.2,0.2-0.2h1.9c0.1,0,0.2,0.1,0.2,0.2v2.4h-0.4V28.4z"/>
			<path class="st11" d="M167.5,31.1c2.6-7.1,9.4-12.2,17.4-12.2c1.8,0,3.4,0.3,5,0.7c-0.3-0.8-0.6-1.4-1.3-1.9
				c-2.2-1.6-5-2.2-7.5-3.2c-1.4-0.6-2.9-1.1-4.5-0.8c-1.2,0.3-2.4,0.8-3.4,1.3c-1.3,0.4-2.5,0.8-3.8,1.3c-1.1,0.5-2.3,1-2.9,2.1
				c-0.6,0.9-0.5,2.1-0.5,3.2c0.1,2.8,0.6,5.7,1.1,8.4C167.3,30.3,167.4,30.7,167.5,31.1z"/>
			<path class="st12" d="M190.4,48.1c0,0.6-5.6,1.1-12.6,1.1s-12.7-0.5-12.7-1.1s5.6-1.1,12.6-1.1S190.4,47.6,190.4,48.1z"/>
			<path class="st11" d="M177.4,2.8c0.8,0,1.7,0.2,2.4,0.4c1.3,0.4,2.4,1.3,3.4,2.3c-0.3-2.9-2.9-5.2-5.9-5.2c-3.1,0-5.7,2.4-6,5.6
				c0.8-1.1,1.9-1.9,3.1-2.4C175.3,3.1,176.3,2.8,177.4,2.8z"/>
		</g>
	</g>
</g>
<g>
	<g>
		<g>
			<g>
				<path class="st3" d="M36.1,32.1c-2.1,2-4.7,3.1-7.6,3.1c-3.2,0-5.9-1.1-8.1-3.4c-2.2-2.2-3.4-4.9-3.4-8.1c0-3.2,1.1-5.9,3.4-8.1
					s4.9-3.4,8.1-3.4c3,0,5.5,1,7.7,3l-1,0.9c-1.9-1.7-4.2-2.6-6.8-2.6c-2.8,0-5.2,1-7.2,3c-2,2-3,4.4-3,7.2c0,2.8,1,5.2,3,7.2
					c2,2,4.4,3,7.2,3c2.4,0,4.5-0.7,6.4-2.2v-6.8h1.3V32.1z"/>
				<path class="st3" d="M28.4,35.5c-3.2,0-6-1.2-8.3-3.4c-2.3-2.3-3.4-5.1-3.4-8.3c0-3.2,1.2-6,3.4-8.3c2.3-2.3,5.1-3.5,8.3-3.5
					c3,0,5.7,1,7.9,3.1c0.1,0.1,0.1,0.1,0.1,0.2s0,0.2-0.1,0.2l-1,0.9c-0.1,0.1-0.3,0.1-0.4,0c-1.9-1.6-4.1-2.5-6.6-2.5
					c-2.7,0-5.1,1-7,2.9c-1.9,1.9-2.9,4.3-2.9,7c0,2.7,1,5.1,2.9,7s4.3,2.9,7,2.9c2.3,0,4.3-0.7,6.1-2.1v-6.7c0-0.2,0.1-0.3,0.3-0.3
					h1.3c0.2,0,0.3,0.1,0.3,0.3v7.3c0,0.1,0,0.2-0.1,0.2C34.1,34.4,31.5,35.5,28.4,35.5z M28.4,12.6c-3.1,0-5.7,1.1-7.9,3.3
					c-2.2,2.2-3.3,4.8-3.3,7.9c0,3.1,1.1,5.7,3.3,7.9c2.2,2.2,4.8,3.3,7.9,3.3c2.8,0,5.3-1,7.3-2.9v-6.8h-0.6v6.5
					c0,0.1,0,0.2-0.1,0.2c-1.9,1.5-4.1,2.3-6.6,2.3c-2.9,0-5.4-1-7.4-3.1c-2-2-3.1-4.5-3.1-7.4c0-2.9,1-5.4,3.1-7.4
					c2-2,4.5-3.1,7.4-3.1c2.6,0,4.8,0.8,6.8,2.5l0.5-0.4C33.6,13.5,31.2,12.6,28.4,12.6z M36.1,32.1L36.1,32.1L36.1,32.1z"/>
			</g>
			<g>
				<path class="st3" d="M45.7,35.1c-1.7,0-3.1-0.5-4.1-1.5c-1-1-1.5-2.3-1.6-3.8v-8.6h1.3v8.5c0,1.2,0.4,2.2,1.3,3
					c0.8,0.8,1.9,1.2,3.1,1.2c1.2,0,2.2-0.4,3-1.2c0.8-0.8,1.3-1.8,1.3-3v-8.5h1.3v8.6c0,1.5-0.6,2.8-1.6,3.8
					C48.6,34.6,47.3,35.1,45.7,35.1z"/>
				<path class="st3" d="M45.7,35.4c-1.8,0-3.2-0.5-4.3-1.6c-1.1-1.1-1.6-2.4-1.7-4.1v-8.6c0-0.2,0.1-0.3,0.3-0.3h1.3
					c0.2,0,0.3,0.1,0.3,0.3v8.5c0,1.1,0.4,2,1.2,2.8c0.8,0.8,1.7,1.2,2.9,1.2c1.1,0,2-0.4,2.8-1.1c0.8-0.8,1.2-1.7,1.2-2.8v-8.5
					c0-0.2,0.1-0.3,0.3-0.3h1.3c0.2,0,0.3,0.1,0.3,0.3v8.6c0,1.6-0.6,3-1.7,4.1C48.8,34.9,47.4,35.4,45.7,35.4z M40.3,21.5v8.3
					c0,1.5,0.5,2.7,1.5,3.6c1,1,2.3,1.4,3.9,1.4c1.5,0,2.8-0.5,3.7-1.4c1-1,1.5-2.2,1.5-3.6v-8.2h-0.6v8.1c0,1.2-0.5,2.3-1.4,3.2
					c-0.9,0.9-2,1.3-3.2,1.3c-1.3,0-2.4-0.4-3.3-1.3c-0.9-0.9-1.4-2-1.4-3.2v-8.1H40.3z"/>
			</g>
			<g>
				<path class="st3" d="M70.2,34.9H69v-2.8c-0.2,0.3-0.5,0.6-0.8,0.9c-1.5,1.5-3.3,2.3-5.4,2.3c-2.1,0-3.9-0.8-5.4-2.3
					c-1.5-1.5-2.3-3.3-2.3-5.4c0-2.1,0.8-3.9,2.3-5.4c1.5-1.5,3.3-2.3,5.4-2.3c2.1,0,3.9,0.8,5.4,2.3c0.3,0.3,0.6,0.6,0.8,0.9v-1.9
					h1.3V34.9z M69,28.9v-2.5c-0.2-1.2-0.8-2.3-1.7-3.2c-1.2-1.2-2.7-1.9-4.5-1.9c-1.8,0-3.3,0.6-4.5,1.9c-1.2,1.2-1.9,2.7-1.9,4.5
					s0.6,3.3,1.9,4.5c1.2,1.2,2.7,1.9,4.5,1.9c1.8,0,3.3-0.6,4.5-1.9C68.1,31.2,68.7,30.1,69,28.9z"/>
				<path class="st3" d="M62.7,35.6c-2.2,0-4.1-0.8-5.7-2.3c-1.6-1.6-2.3-3.5-2.3-5.7c0-2.2,0.8-4.1,2.3-5.7
					c1.6-1.6,3.5-2.3,5.7-2.3c2.2,0,4.1,0.8,5.7,2.3c0.1,0.1,0.2,0.2,0.3,0.3v-1.1c0-0.2,0.1-0.3,0.3-0.3h1.3c0.2,0,0.3,0.1,0.3,0.3
					v13.7c0,0.2-0.1,0.3-0.3,0.3H69c-0.2,0-0.3-0.1-0.3-0.3V33c-0.1,0.1-0.2,0.2-0.3,0.3C66.8,34.8,64.9,35.6,62.7,35.6z M62.7,20.2
					c-2,0-3.8,0.7-5.2,2.2c-1.4,1.4-2.2,3.2-2.2,5.2c0,2,0.7,3.8,2.2,5.2c1.4,1.4,3.2,2.2,5.2,2.2c2,0,3.8-0.7,5.2-2.2
					c0.3-0.3,0.5-0.6,0.8-0.9c0.1-0.1,0.2-0.2,0.3-0.1c0.1,0,0.2,0.2,0.2,0.3v2.5h0.6V21.5h-0.6v1.6c0,0.1-0.1,0.3-0.2,0.3
					c-0.1,0-0.3,0-0.3-0.1c-0.2-0.3-0.5-0.6-0.8-0.9C66.5,21,64.8,20.2,62.7,20.2z M62.7,34.3c-1.8,0-3.4-0.7-4.7-1.9
					c-1.3-1.3-2-2.9-2-4.7c0-1.8,0.7-3.4,2-4.7c1.3-1.3,2.9-2,4.7-2c1.8,0,3.4,0.7,4.7,2c1,1,1.6,2.1,1.8,3.4l0,2.5c0,0,0,0,0,0.1
					c-0.2,1.3-0.9,2.4-1.8,3.4C66.1,33.6,64.6,34.3,62.7,34.3z M62.7,21.6c-1.7,0-3.1,0.6-4.3,1.8c-1.2,1.2-1.8,2.6-1.8,4.3
					c0,1.7,0.6,3.1,1.8,4.3c1.2,1.2,2.6,1.8,4.3,1.8c1.7,0,3.1-0.6,4.3-1.8c0.9-0.9,1.4-1.9,1.7-3v-2.5c-0.2-1.1-0.8-2.1-1.7-3
					C65.8,22.2,64.4,21.6,62.7,21.6z M69,28.9L69,28.9L69,28.9z"/>
			</g>
			<g>
				<path class="st3" d="M74.4,21.2h1.3v2.5c0.3-0.4,0.6-0.7,0.9-1.1c1.1-1.1,2.2-1.7,3.4-1.8v1.4c-0.8,0-1.6,0.5-2.5,1.3
					c-1.2,1.2-1.8,2.6-1.9,4.3v7.1h-1.3V21.2z"/>
				<path class="st3" d="M75.7,35.2h-1.3c-0.2,0-0.3-0.1-0.3-0.3V21.2c0-0.2,0.1-0.3,0.3-0.3h1.3c0.2,0,0.3,0.1,0.3,0.3v1.6
					c0.1-0.1,0.2-0.3,0.4-0.4c1.2-1.2,2.4-1.8,3.6-1.8c0.1,0,0.2,0,0.2,0.1c0.1,0.1,0.1,0.1,0.1,0.2v1.4c0,0.2-0.1,0.3-0.3,0.3
					c-0.7,0-1.5,0.5-2.3,1.2c-1.1,1.1-1.7,2.5-1.8,4.1v7.1C76,35.1,75.9,35.2,75.7,35.2z M74.7,34.6h0.6v-6.8c0-1.7,0.7-3.3,2-4.5
					c0.8-0.8,1.6-1.3,2.4-1.4v-0.7c-1,0.1-1.9,0.7-2.9,1.6c-0.3,0.3-0.6,0.7-0.9,1C75.9,24,75.7,24,75.6,24c-0.1,0-0.2-0.2-0.2-0.3
					v-2.2h-0.6V34.6z"/>
			</g>
			<g>
				<path class="st3" d="M97.6,34.9h-1.3v-2.8c-0.2,0.3-0.5,0.6-0.8,0.9c-1.5,1.5-3.3,2.3-5.4,2.3c-2.1,0-3.9-0.8-5.4-2.3
					c-1.5-1.5-2.3-3.3-2.3-5.4c0-2.1,0.8-3.9,2.3-5.4c1.5-1.5,3.3-2.3,5.4-2.3c2.1,0,3.9,0.8,5.4,2.3c0.3,0.3,0.6,0.6,0.8,0.9V12.5
					h1.3V34.9z M96.3,28.9v-2.5c-0.2-1.2-0.8-2.3-1.7-3.2c-1.2-1.2-2.7-1.9-4.5-1.9c-1.8,0-3.3,0.6-4.5,1.9
					c-1.2,1.2-1.9,2.7-1.9,4.5s0.6,3.3,1.9,4.5c1.2,1.2,2.7,1.9,4.5,1.9c1.8,0,3.3-0.6,4.5-1.9C95.5,31.2,96.1,30.1,96.3,28.9z"/>
				<path class="st3" d="M90.1,35.6c-2.2,0-4.1-0.8-5.7-2.3c-1.6-1.6-2.3-3.5-2.3-5.7c0-2.2,0.8-4.1,2.3-5.7
					c1.6-1.6,3.5-2.3,5.7-2.3c2.2,0,4.1,0.8,5.7,2.3c0.1,0.1,0.2,0.2,0.3,0.3v-9.7c0-0.2,0.1-0.3,0.3-0.3h1.3c0.2,0,0.3,0.1,0.3,0.3
					v22.4c0,0.2-0.1,0.3-0.3,0.3h-1.3c-0.2,0-0.3-0.1-0.3-0.3V33c-0.1,0.1-0.2,0.2-0.3,0.3C94.2,34.8,92.3,35.6,90.1,35.6z
					 M90.1,20.2c-2,0-3.8,0.7-5.2,2.2c-1.4,1.4-2.2,3.2-2.2,5.2c0,2,0.7,3.8,2.2,5.2c1.4,1.4,3.2,2.2,5.2,2.2c2,0,3.8-0.7,5.2-2.2
					c0.3-0.3,0.5-0.6,0.8-0.9c0.1-0.1,0.2-0.2,0.3-0.1c0.1,0,0.2,0.2,0.2,0.3v2.5h0.6V12.8h-0.6v10.3c0,0.1-0.1,0.3-0.2,0.3
					c-0.1,0-0.3,0-0.3-0.1c-0.2-0.3-0.5-0.6-0.8-0.9C93.9,21,92.1,20.2,90.1,20.2z M90.1,34.3c-1.8,0-3.4-0.7-4.7-1.9
					c-1.3-1.3-2-2.9-2-4.7c0-1.8,0.7-3.4,2-4.7c1.3-1.3,2.9-2,4.7-2c1.8,0,3.4,0.7,4.7,2c1,1,1.6,2.1,1.8,3.4l0,2.5c0,0,0,0,0,0.1
					c-0.2,1.3-0.9,2.4-1.8,3.4C93.5,33.6,91.9,34.3,90.1,34.3z M90.1,21.6c-1.7,0-3.1,0.6-4.3,1.8C84.6,24.5,84,26,84,27.6
					c0,1.7,0.6,3.1,1.8,4.3c1.2,1.2,2.6,1.8,4.3,1.8s3.1-0.6,4.3-1.8c0.9-0.9,1.4-1.9,1.7-3v-2.5c-0.2-1.1-0.8-2.1-1.7-3
					C93.2,22.2,91.7,21.6,90.1,21.6z M96.3,28.9L96.3,28.9L96.3,28.9z"/>
			</g>
			<g>
				<path class="st3" d="M103.6,16.7c0.2,0.2,0.4,0.5,0.4,0.9c0,0.4-0.1,0.7-0.4,0.9c-0.2,0.2-0.5,0.4-0.9,0.4
					c-0.3,0-0.6-0.1-0.9-0.4c-0.2-0.2-0.4-0.5-0.4-0.9c0-0.3,0.1-0.6,0.4-0.9c0.2-0.2,0.5-0.4,0.9-0.4
					C103,16.3,103.3,16.4,103.6,16.7z M103.3,21.2v13.7H102V21.2H103.3z"/>
				<path class="st3" d="M103.3,35.2H102c-0.2,0-0.3-0.1-0.3-0.3V21.2c0-0.2,0.1-0.3,0.3-0.3h1.3c0.2,0,0.3,0.1,0.3,0.3v13.7
					C103.6,35.1,103.5,35.2,103.3,35.2z M102.4,34.6h0.6V21.5h-0.6V34.6z M102.7,19.1c-0.4,0-0.8-0.2-1.1-0.5
					c-0.3-0.3-0.5-0.7-0.5-1.1c0-0.4,0.2-0.8,0.5-1.1c0.6-0.6,1.6-0.6,2.2,0c0,0,0,0,0,0c0.3,0.3,0.5,0.7,0.5,1.1
					c0,0.4-0.2,0.8-0.5,1.1C103.5,19,103.1,19.1,102.7,19.1z M102.7,16.6c-0.3,0-0.5,0.1-0.7,0.3c-0.2,0.2-0.3,0.4-0.3,0.7
					c0,0.3,0.1,0.5,0.3,0.7c0.4,0.4,1,0.4,1.3,0c0.2-0.2,0.3-0.4,0.3-0.7c0-0.3-0.1-0.5-0.3-0.7C103.2,16.7,102.9,16.6,102.7,16.6z"
					/>
			</g>
			<g>
				<path class="st3" d="M122.6,34.9h-1.3v-2.8c-0.2,0.3-0.5,0.6-0.8,0.9c-1.5,1.5-3.3,2.3-5.4,2.3c-2.1,0-3.9-0.8-5.4-2.3
					c-1.5-1.5-2.3-3.3-2.3-5.4c0-2.1,0.8-3.9,2.3-5.4c1.5-1.5,3.3-2.3,5.4-2.3c2.1,0,3.9,0.8,5.4,2.3c0.3,0.3,0.6,0.6,0.8,0.9v-1.9
					h1.3V34.9z M121.4,28.9v-2.5c-0.2-1.2-0.8-2.3-1.7-3.2c-1.2-1.2-2.7-1.9-4.5-1.9c-1.8,0-3.3,0.6-4.5,1.9
					c-1.2,1.2-1.9,2.7-1.9,4.5s0.6,3.3,1.9,4.5c1.2,1.2,2.7,1.9,4.5,1.9c1.8,0,3.3-0.6,4.5-1.9C120.5,31.2,121.1,30.1,121.4,28.9z
					 M118.1,15.5l-3.4,2.6h-1.2l2.3-2.6H118.1z"/>
				<path class="st3" d="M115.1,35.6c-2.2,0-4.1-0.8-5.7-2.3c-1.6-1.6-2.3-3.5-2.3-5.7c0-2.2,0.8-4.1,2.3-5.7
					c1.6-1.6,3.5-2.3,5.7-2.3c2.2,0,4.1,0.8,5.7,2.3c0.1,0.1,0.2,0.2,0.3,0.3v-1.1c0-0.2,0.1-0.3,0.3-0.3h1.3c0.2,0,0.3,0.1,0.3,0.3
					v13.7c0,0.2-0.1,0.3-0.3,0.3h-1.3c-0.2,0-0.3-0.1-0.3-0.3V33c-0.1,0.1-0.2,0.2-0.3,0.3C119.2,34.8,117.3,35.6,115.1,35.6z
					 M115.1,20.2c-2,0-3.8,0.7-5.2,2.2c-1.4,1.4-2.2,3.2-2.2,5.2c0,2,0.7,3.8,2.2,5.2c1.4,1.4,3.2,2.2,5.2,2.2c2,0,3.8-0.7,5.2-2.2
					c0.3-0.3,0.5-0.6,0.8-0.9c0.1-0.1,0.2-0.2,0.3-0.1c0.1,0,0.2,0.2,0.2,0.3v2.5h0.6V21.5h-0.6v1.6c0,0.1-0.1,0.3-0.2,0.3
					c-0.1,0-0.3,0-0.3-0.1c-0.2-0.3-0.5-0.6-0.8-0.9C118.9,21,117.2,20.2,115.1,20.2z M115.1,34.3c-1.8,0-3.4-0.7-4.7-1.9
					c-1.3-1.3-2-2.9-2-4.7c0-1.8,0.7-3.4,2-4.7c1.3-1.3,2.9-2,4.7-2c1.8,0,3.4,0.7,4.7,2c1,1,1.6,2.1,1.8,3.4l0,2.5c0,0,0,0,0,0.1
					c-0.2,1.3-0.9,2.4-1.8,3.4C118.5,33.6,117,34.3,115.1,34.3z M115.1,21.6c-1.7,0-3.1,0.6-4.3,1.8c-1.2,1.2-1.8,2.6-1.8,4.3
					c0,1.7,0.6,3.1,1.8,4.3c1.2,1.2,2.6,1.8,4.3,1.8s3.1-0.6,4.3-1.8c0.9-0.9,1.4-1.9,1.7-3v-2.5c-0.2-1.1-0.8-2.1-1.7-3
					C118.2,22.2,116.8,21.6,115.1,21.6z M121.4,28.9L121.4,28.9L121.4,28.9z M114.7,18.4h-1.2c-0.1,0-0.2-0.1-0.3-0.2
					c-0.1-0.1,0-0.2,0-0.3l2.3-2.6c0.1-0.1,0.1-0.1,0.2-0.1h2.3c0.1,0,0.3,0.1,0.3,0.2c0,0.1,0,0.3-0.1,0.3l-3.4,2.6
					C114.8,18.4,114.7,18.4,114.7,18.4z M114.2,17.8h0.4l2.6-2h-1.3L114.2,17.8z"/>
			</g>
			<g>
				<path class="st3" d="M128.1,24.2v10.7h-1.3V21.2h1.3V22c1.1-1.1,2.5-1.7,4-1.7c1.6,0,2.9,0.5,4,1.5c1,1,1.5,2.3,1.6,3.8v9.2
					h-1.3v-9.1c0-1.2-0.4-2.2-1.3-3c-0.8-0.8-1.8-1.2-3-1.2c-1.2,0-2.2,0.4-3,1.2C128.6,23.3,128.3,23.7,128.1,24.2z"/>
				<path class="st3" d="M137.6,35.2h-1.3c-0.2,0-0.3-0.1-0.3-0.3v-9.1c0-1.1-0.4-2-1.2-2.8c-0.8-0.8-1.7-1.1-2.8-1.1
					c-1.1,0-2,0.4-2.8,1.1c-0.4,0.4-0.7,0.8-0.9,1.3v10.6c0,0.2-0.1,0.3-0.3,0.3h-1.3c-0.2,0-0.3-0.1-0.3-0.3V21.2
					c0-0.2,0.1-0.3,0.3-0.3h1.3c0.2,0,0.3,0.1,0.3,0.3v0.2c1.1-0.9,2.3-1.3,3.7-1.3c1.7,0,3.1,0.5,4.2,1.6c1.1,1.1,1.6,2.4,1.7,4.1
					v9.2C137.9,35.1,137.8,35.2,137.6,35.2z M136.7,34.6h0.6v-8.9c0-1.5-0.5-2.7-1.5-3.6c-1-1-2.2-1.4-3.7-1.4
					c-1.5,0-2.7,0.5-3.8,1.6c-0.1,0.1-0.2,0.1-0.3,0.1c-0.1,0-0.2-0.2-0.2-0.3v-0.6h-0.6v13.1h0.6V24.2c0,0,0-0.1,0-0.1
					c0.2-0.5,0.6-1,1.1-1.5c0.9-0.9,2-1.3,3.2-1.3s2.3,0.4,3.2,1.3c0.9,0.9,1.4,2,1.4,3.2V34.6z"/>
			</g>
		</g>
		<g>
			<g>
				<path class="st3" d="M72.4,51.5C70.8,53,69,53.8,67,53.8c-2.2,0-4-0.8-5.6-2.3c-1.5-1.5-2.3-3.4-2.3-5.6c0-2.2,0.8-4,2.3-5.6
					c1.5-1.5,3.4-2.3,5.6-2.3c2,0,4,0.8,5.8,2.5l-1.5,1.4C69.9,40.6,68.5,40,67,40c-1.6,0-3,0.6-4.1,1.7c-1.1,1.1-1.7,2.5-1.7,4.1
					c0,1.6,0.6,3,1.7,4.2c1.1,1.1,2.5,1.7,4.1,1.7c1.4,0,2.5-0.4,3.4-1.1V46h2V51.5z"/>
				<path class="st3" d="M67,54.1c-2.3,0-4.2-0.8-5.8-2.4c-1.6-1.6-2.4-3.5-2.4-5.8c0-2.2,0.8-4.2,2.4-5.8c1.6-1.6,3.5-2.4,5.8-2.4
					c2.1,0,4.1,0.9,6,2.6c0.1,0.1,0.1,0.1,0.1,0.2s0,0.2-0.1,0.2l-1.5,1.4c-0.1,0.1-0.3,0.1-0.4,0c-1.3-1.2-2.7-1.8-4.1-1.8
					c-1.5,0-2.8,0.5-3.9,1.6c-1.1,1.1-1.6,2.4-1.6,3.9c0,1.5,0.5,2.9,1.6,3.9c1.1,1.1,2.4,1.6,3.9,1.6c1.2,0,2.3-0.3,3.1-0.9V46
					c0-0.2,0.1-0.3,0.3-0.3h2c0.2,0,0.3,0.1,0.3,0.3v5.5c0,0.1,0,0.2-0.1,0.2C71,53.3,69.1,54.1,67,54.1z M67,38.3
					c-2.1,0-3.9,0.7-5.3,2.2c-1.5,1.5-2.2,3.3-2.2,5.3c0,2.1,0.7,3.9,2.2,5.3c1.5,1.5,3.3,2.2,5.3,2.2c1.9,0,3.6-0.7,5.1-2.1v-5
					h-1.4v4.3c0,0.1,0,0.2-0.1,0.2c-1,0.8-2.2,1.2-3.6,1.2c-1.7,0-3.2-0.6-4.4-1.8c-1.2-1.2-1.8-2.7-1.8-4.4c0-1.7,0.6-3.2,1.8-4.4
					c1.2-1.2,2.7-1.8,4.4-1.8c1.5,0,2.9,0.6,4.3,1.7l1-0.9C70.6,39,68.8,38.3,67,38.3z M72.4,51.5L72.4,51.5L72.4,51.5z"/>
			</g>
			<g>
				<path class="st3" d="M77.4,48.7v4.9h-2V38.2h4.4c1.2,0.2,2.3,0.7,3.1,1.5c1,1,1.5,2.3,1.5,3.7c0,1.5-0.5,2.7-1.5,3.7
					c-1,1-2.3,1.5-3.7,1.5H77.4z M77.4,40.2v6.5h1.8c0.9,0,1.6-0.3,2.3-0.9c0.6-0.6,0.9-1.4,0.9-2.3c0-0.9-0.3-1.7-0.9-2.3
					c-0.6-0.6-1.4-0.9-2.3-0.9H77.4z"/>
				<path class="st3" d="M77.4,53.9h-2c-0.2,0-0.3-0.1-0.3-0.3V38.2c0-0.2,0.1-0.3,0.3-0.3h4.4c1.3,0.2,2.5,0.7,3.4,1.6
					c1.1,1.1,1.6,2.4,1.6,3.9c0,1.5-0.5,2.9-1.6,3.9c-1.1,1.1-2.4,1.6-3.9,1.6h-1.5v4.6C77.7,53.8,77.6,53.9,77.4,53.9z M75.7,53.3
					h1.4v-4.6c0-0.2,0.1-0.3,0.3-0.3h1.8c1.4,0,2.5-0.5,3.5-1.4c1-1,1.4-2.1,1.4-3.5c0-1.4-0.5-2.5-1.4-3.5c-0.8-0.8-1.8-1.3-3-1.4
					l-4,0V53.3z M79.2,47h-1.8c-0.2,0-0.3-0.1-0.3-0.3v-6.5c0-0.2,0.1-0.3,0.3-0.3h1.8c1,0,1.8,0.3,2.5,1c0.7,0.7,1,1.5,1,2.5
					c0,1-0.4,1.8-1,2.5C81,46.6,80.2,47,79.2,47z M77.7,46.3h1.5c0.8,0,1.5-0.3,2.1-0.9c0.6-0.6,0.9-1.3,0.9-2.1
					c0-0.8-0.3-1.5-0.9-2.1c-0.6-0.6-1.3-0.9-2.1-0.9h-1.5V46.3z"/>
			</g>
			<g>
				<path class="st3" d="M90.4,45.7c-1.1-0.4-2-0.9-2.7-1.6c-0.7-0.7-1-1.5-1-2.5c0-1,0.4-1.8,1.1-2.5c0.7-0.7,1.6-1.1,2.6-1.1
					c1,0,1.8,0.4,2.5,1.1c0.4,0.4,0.7,1,1,1.8L92,41.6c-0.2-0.6-0.4-1-0.6-1.2c-0.3-0.3-0.7-0.5-1.1-0.5c-0.5,0-0.8,0.2-1.1,0.5
					c-0.3,0.3-0.5,0.7-0.5,1.1c0,0.4,0.2,0.8,0.5,1.1c0.4,0.3,0.8,0.7,1.5,1c1.2,0.4,2.2,1,3.1,1.9c0.9,0.9,1.4,2.1,1.4,3.4
					s-0.5,2.5-1.4,3.4c-0.9,0.9-2.1,1.4-3.4,1.4c-1.3,0-2.5-0.5-3.4-1.4c-0.8-0.8-1.2-1.8-1.4-3.1l1.9-0.7c0.1,1.1,0.4,1.9,0.9,2.4
					c0.6,0.6,1.2,0.8,2,0.8c0.8,0,1.4-0.3,2-0.8c0.6-0.6,0.8-1.2,0.8-2c0-0.8-0.3-1.4-0.8-2C91.8,46.4,91.1,46,90.4,45.7z"/>
				<path class="st3" d="M90.3,54.1c-1.4,0-2.6-0.5-3.6-1.5c-0.8-0.8-1.3-1.9-1.5-3.3c0-0.1,0.1-0.3,0.2-0.3l1.9-0.7
					c0.1,0,0.2,0,0.3,0c0.1,0.1,0.1,0.1,0.1,0.2c0.1,1.1,0.4,1.8,0.8,2.2c0.5,0.5,1.1,0.7,1.8,0.7c0.7,0,1.3-0.2,1.8-0.7
					c0.5-0.5,0.7-1.1,0.7-1.8c0-0.7-0.2-1.3-0.7-1.8c-0.5-0.5-1.1-0.9-1.8-1.2c-1.1-0.4-2.1-0.9-2.8-1.6c-0.7-0.7-1.1-1.7-1.1-2.7
					c0-1.1,0.4-2,1.1-2.8c0.8-0.8,1.7-1.2,2.8-1.2c1.1,0,2,0.4,2.8,1.1c0.4,0.4,0.8,1.1,1.1,2c0.1,0.2,0,0.3-0.2,0.4l-1.8,0.7
					c-0.1,0-0.2,0-0.2,0s-0.1-0.1-0.2-0.2c-0.3-0.7-0.4-0.9-0.5-1c-0.5-0.5-1.3-0.5-1.8,0c-0.3,0.3-0.4,0.6-0.4,0.9
					c0,0.4,0.1,0.7,0.4,0.9c0.3,0.3,0.8,0.6,1.4,0.9c1.2,0.4,2.3,1,3.2,1.9c1,1,1.5,2.2,1.5,3.6s-0.5,2.6-1.5,3.6
					C92.9,53.6,91.7,54.1,90.3,54.1z M85.8,49.4c0.2,1.1,0.6,2,1.3,2.7c0.9,0.9,1.9,1.3,3.2,1.3c1.2,0,2.3-0.4,3.2-1.3
					c0.9-0.9,1.3-1.9,1.3-3.2s-0.4-2.3-1.3-3.2c-0.8-0.8-1.8-1.4-2.9-1.8c-0.7-0.3-1.2-0.7-1.6-1c-0.4-0.4-0.6-0.8-0.6-1.4
					c0-0.5,0.2-1,0.6-1.4c0.7-0.7,2-0.7,2.7,0c0.2,0.2,0.4,0.5,0.6,1l1.2-0.5c-0.2-0.6-0.5-1.1-0.8-1.4c-0.7-0.6-1.4-1-2.3-1
					c-0.9,0-1.7,0.3-2.3,1c-0.6,0.7-1,1.4-1,2.3c0,0.9,0.3,1.7,0.9,2.3c0.6,0.6,1.5,1.1,2.5,1.5c0,0,0,0,0,0c0.8,0.3,1.5,0.8,2,1.3
					c0.6,0.6,0.9,1.4,0.9,2.2c0,0.9-0.3,1.6-0.9,2.2c-0.6,0.6-1.4,0.9-2.2,0.9c-0.9,0-1.6-0.3-2.2-0.9c-0.5-0.5-0.8-1.2-0.9-2.2
					L85.8,49.4z"/>
			</g>
		</g>
	</g>
	<g>
		<g>
			<path class="st2" d="M167.6,24.9c-0.1-0.2-0.2-0.2-0.3-0.3c-0.3-0.2-0.7-0.4-1-0.6c-0.3-0.2-0.7-0.2-1-0.4
				c-0.3-0.2-0.8-0.2-1.2-0.4c-0.5-0.1-0.8-0.2-1.3-0.3c-0.3-0.1-0.8-0.2-1.2-0.4c-0.3-0.2-0.7-0.2-1-0.4c-0.3-0.2-0.7-0.2-1-0.3
				c-0.3-0.1-0.6-0.2-0.9-0.2c-0.2,0-0.6,0-0.9,0.1c-0.3,0.1-0.7,0.2-0.9,0.3c-0.3,0.2-0.7,0.2-1,0.4c-0.3,0.2-0.8,0.2-1.2,0.4
				c-0.3,0.2-0.8,0.2-1.3,0.3c-0.3,0.1-0.8,0.2-1.2,0.4c-0.3,0.1-0.7,0.2-1.2,0.4c-0.3,0.2-0.7,0.3-1,0.6c-0.2,0.2-0.6,0.4-0.8,0.7
				c-0.1,0.2-0.2,0.6-0.2,0.8c0,0.3,0,0.6,0,0.9c0,0.4,0.1,0.9,0.1,1.2c0,0.4,0.1,0.8,0.1,1.2c0.1,0.4,0.1,0.8,0.2,1.2
				c0.1,0.4,0.1,0.8,0.2,1.2c0.1,0.4,0.2,0.8,0.2,1.2c0.1,0.4,0.2,0.8,0.2,1.2c0.1,0.4,0.2,0.8,0.3,1.2s0.2,0.8,0.3,1.2
				c0.1,0.3,0.2,0.8,0.5,1.1c0.2,0.3,0.2,0.8,0.5,1.1s0.3,0.7,0.6,1c0.2,0.3,0.3,0.7,0.6,1c0.2,0.3,0.5,0.7,0.6,1
				c0.2,0.3,0.5,0.7,0.6,1.1c0.2,0.3,0.5,0.7,0.6,1c0.2,0.3,0.5,0.6,0.7,0.9c0.1,0.2,0.2,0.3,0.3,0.4c0.1,0.2,0.2,0.3,0.3,0.4
				c0.1,0.1,0.2,0.2,0.3,0.3c0.1,0.2,0.2,0.2,0.5,0.3c0.2,0.2,0.6,0.4,0.9,0.6c0.1,0.1,0.2,0.1,0.3,0.2h0.1h0.1h0.1h0.1
				c0.2-0.1,0.6-0.2,0.8-0.4c0.3-0.2,0.6-0.4,0.9-0.7c0.2-0.2,0.6-0.6,0.8-0.9c0.2-0.3,0.6-0.6,0.7-0.9c0.2-0.3,0.5-0.7,0.7-1
				c0.2-0.3,0.5-0.7,0.6-1s0.5-0.7,0.6-1c0.2-0.3,0.5-0.7,0.6-1c0.2-0.3,0.5-0.7,0.6-1.1c0.2-0.3,0.3-0.8,0.6-1.1
				c0.2-0.3,0.2-0.8,0.5-1.1c0.2-0.4,0.2-0.8,0.3-1.2c0.1-0.4,0.2-0.8,0.3-1.2c0.1-0.4,0.2-0.8,0.2-1.2c0.1-0.4,0.2-0.9,0.2-1.2
				c0.1-0.4,0.2-0.8,0.2-1.2c0.1-0.4,0.1-0.8,0.2-1.2c0.1-0.4,0.1-0.8,0.2-1.2c0-0.4,0.1-0.9,0.1-1.3c0-0.3,0.1-0.7,0-1
				c0-0.2,0-0.6-0.1-0.8C167.7,25,167.6,25,167.6,24.9z M164.6,29.4c-0.1,0.1-0.2,0.2-0.2,0.3c-0.2,0.6-0.6,0.9-0.9,1.3
				c-0.2,0.2-0.2,0.4-0.5,0.7c-0.2,0.2-0.2,0.4-0.5,0.7c-0.3,0.4-0.6,0.9-0.9,1.3c-0.3,0.4-0.7,0.9-1,1.2c-0.3,0.3-0.8,0.8-1.3,1
				c-0.2,0.2-0.6,0.3-1,0.4c-0.3,0-0.7-0.2-0.9-0.2c-0.5-0.2-0.9-0.6-1.3-0.9c-0.3-0.3-0.8-0.8-1-1.2c-0.3-0.4-0.6-0.9-0.9-1.3
				c-0.3-0.4-0.6-0.9-0.9-1.3c-0.3-0.4-0.6-0.9-0.9-1.3c-0.1-0.1-0.2-0.2-0.2-0.3c0-0.1-0.1-0.1-0.1-0.2c0,0,0,0,0-0.1
				c0.2-0.2,0.5-0.4,0.6-0.6c0.5-0.4,0.9-0.9,1.4-1.3c0.1,0,0.2,0,0.2,0c0.6,0,1.3,0,1.7,0c0.9,0,1.7,0,2.7,0c0.8,0,1.7,0,2.5,0
				c0.2,0,0.6,0,0.9,0c0.1,0,0.2,0,0.2,0s0.1,0,0.2,0c0,0,0,0,0.1,0c0.1,0.1,0.2,0.2,0.2,0.2c0.2,0.2,0.6,0.6,0.9,0.9
				C164,28.9,164.4,29.2,164.6,29.4C164.5,29.4,164.6,29.4,164.6,29.4L164.6,29.4z"/>
			<path class="st2" d="M158.2,16.5c2.1,0,3.8-1.7,3.8-3.6s-1.7-3.6-3.8-3.6c-2.1,0-3.8,1.7-3.8,3.6S156.1,16.5,158.2,16.5z
				 M159.6,12.5c0.5,0,0.8,0.3,0.8,0.8s-0.3,0.8-0.8,0.8s-0.8-0.3-0.8-0.8S159.2,12.5,159.6,12.5z M157.2,10.4
				c0.6,0,1.2,0.6,1.2,1.1s-0.6,1.1-1.2,1.1s-1.2-0.6-1.2-1.1S156.6,10.4,157.2,10.4z"/>
			<path class="st2" d="M161,31.4c0-0.2,0-0.2,0-0.4c0-0.1,0-0.1,0-0.2c0-0.1-0.1-0.2-0.2-0.2c-0.1,0-0.1,0-0.2,0
				c-0.2,0-0.3,0-0.6,0c-0.2,0-0.3,0-0.6,0c-0.1,0-0.1,0-0.2,0c-0.1,0-0.2,0.1-0.2,0.2c0,0.1,0,0.1,0,0.2c0,0.2,0,0.3,0,0.6
				c0,0.2,0,0.3,0,0.6c0,0.1,0,0.1-0.1,0.1c-0.3,0-0.6,0-0.9,0c-0.2,0-0.5,0-0.6,0c-0.2-0.1-0.2-0.2-0.3-0.3c0-0.2,0-0.6,0-0.7
				s0-0.3,0-0.6c0-0.1,0-0.2,0-0.2c0-0.2,0.2-0.3,0.2-0.4c0.1-0.1,0.2,0,0.5,0c0.3,0,0.6,0,0.9,0c0.6,0,1.3,0,1.7,0
				c0.3,0,0.2-0.3,0.2-0.6c0-0.1-0.1-0.2-0.2-0.2c-0.1,0-0.2,0-0.2,0c-0.2,0-0.6,0-0.8,0c-0.7,0-1.5,0-2.2,0c-0.2,0-0.5,0-0.7,0
				s-0.3,0-0.5,0.1c-0.5,0.2-0.8,0.6-0.9,0.9c-0.1,0.2,0,0.4,0,0.6c0,0.3,0,0.6,0,0.9c0,0.4,0.2,0.9,0.6,1.1c0.3,0.2,0.7,0.2,1,0.2
				c0.7,0,1.4,0,2.1,0c0.6,0,0.9,0,1.5,0c0.1,0,0.2,0,0.2-0.1c0.1-0.1,0-0.2,0-0.3C161,32,161,31.7,161,31.4z"/>
			<path class="st3" d="M171.8,30.8c-0.1-0.6-0.2-0.9-0.3-1.3c-0.2-0.4-0.5-0.9-0.8-1.2c-0.2-0.2-0.3-0.3-0.6-0.6
				c-0.1-0.1-0.2-0.2-0.3-0.2c-0.1,0-0.1-0.1-0.2-0.1c-0.1,0,0-0.1,0-0.1c0-0.2,0-0.6,0.1-0.7c0-0.2,0-0.4,0-0.7
				c0-0.2,0-0.4-0.1-0.7c0-0.2-0.1-0.3-0.1-0.6c-0.1-0.2-0.2-0.4-0.2-0.6c-0.2-0.2-0.3-0.6-0.6-0.7c-0.2-0.1-0.3-0.2-0.6-0.4
				c-0.2-0.2-0.6-0.3-0.9-0.6c-0.2-0.1-0.5-0.2-0.6-0.2c-0.3-0.2-0.7-0.2-1-0.4c-0.5-0.2-0.9-0.2-1.4-0.4c-0.5-0.1-0.9-0.2-1.4-0.4
				c-0.2-0.1-0.6-0.2-0.9-0.3c-0.2-0.1-0.5-0.2-0.6-0.2c-0.2-0.1-0.5-0.2-0.6-0.2c-0.2-0.1-0.6-0.2-0.8-0.2
				c-0.2-0.1-0.5-0.1-0.7-0.2c-0.2,0-0.3-0.1-0.6-0.1c-0.2,0-0.3,0-0.6,0c-0.2,0-0.3,0-0.6,0.1c-0.2,0-0.5,0.1-0.7,0.2
				c-0.2,0.1-0.6,0.2-0.8,0.2c-0.2,0.1-0.5,0.2-0.6,0.2c-0.2,0.1-0.5,0.2-0.6,0.2c-0.2,0.1-0.6,0.2-0.9,0.3
				c-0.5,0.2-0.9,0.2-1.4,0.4s-0.9,0.2-1.4,0.4c-0.3,0.1-0.7,0.2-1,0.4c-0.2,0.1-0.5,0.2-0.6,0.2c-0.3,0.2-0.6,0.3-0.9,0.6
				c-0.2,0.2-0.3,0.2-0.6,0.4c-0.2,0.2-0.3,0.4-0.6,0.7c-0.1,0.2-0.2,0.3-0.2,0.6c-0.1,0.2-0.1,0.3-0.1,0.6s-0.1,0.6-0.1,0.7
				c0,0.2,0,0.4,0,0.7s0,0.6,0.1,0.7c0,0.1,0,0.1-0.1,0.1c-0.1,0-0.1,0.1-0.2,0.1c-0.1,0.1-0.2,0.2-0.3,0.2
				c-0.2,0.2-0.3,0.3-0.6,0.6c-0.3,0.3-0.6,0.8-0.8,1.2c-0.2,0.4-0.2,0.9-0.3,1.3c0,0.6,0,1,0.2,1.4c0.1,0.4,0.3,0.9,0.6,1.3
				s0.6,0.8,1,1.1c0.3,0.2,0.8,0.6,1.4,0.7c0.1,0,0.2,0.1,0.5,0.1c0.1,0,0.1,0,0.2,0c0.1,0,0.1,0,0.1,0.1c0.1,0.2,0.1,0.4,0.2,0.6
				c0.2,0.4,0.2,0.9,0.5,1.3c0.2,0.4,0.2,0.8,0.5,1.2c0.2,0.3,0.3,0.8,0.6,1.1c0.2,0.4,0.5,0.9,0.7,1.2c0.2,0.4,0.5,0.8,0.7,1.1
				c0.2,0.3,0.5,0.8,0.7,1.1c0.2,0.3,0.5,0.7,0.6,0.9c0.2,0.3,0.5,0.7,0.7,1c0.2,0.3,0.6,0.7,0.8,0.9c0.2,0.3,0.6,0.6,0.9,0.9
				c0.3,0.2,0.6,0.6,0.9,0.8c0.2,0.2,0.6,0.3,0.7,0.4c0.1,0,0.2,0.1,0.2,0.1c0.1,0,0.2,0.1,0.2,0.1c0.2,0.1,0.3,0.1,0.6,0.1
				c0.2,0,0.3,0,0.6,0c0.2,0,0.3-0.1,0.6-0.1c0.2-0.1,0.2-0.1,0.5-0.2c0.2-0.1,0.6-0.2,0.8-0.4c0.3-0.2,0.7-0.6,0.9-0.9
				c0.2-0.2,0.6-0.6,0.9-0.9c0.2-0.3,0.6-0.7,0.8-1c0.2-0.3,0.5-0.7,0.7-1c0.2-0.3,0.5-0.7,0.6-1c0.2-0.3,0.5-0.8,0.7-1.1
				c0.2-0.3,0.5-0.8,0.7-1.2c0.2-0.4,0.5-0.9,0.6-1.2c0.2-0.3,0.3-0.8,0.6-1.1c0.1-0.2,0.2-0.4,0.2-0.6c0.1-0.2,0.2-0.4,0.2-0.6
				c0.2-0.4,0.3-0.9,0.5-1.3c0-0.1,0.1-0.2,0.1-0.3c0-0.1,0-0.1,0.1-0.2c0,0,0-0.1,0.1-0.2h0.2c0.1,0,0.1,0,0.2-0.1
				c0.1,0,0.2-0.1,0.3-0.1c0.5-0.2,0.9-0.4,1.4-0.7c0.3-0.3,0.7-0.7,0.9-1.1c0.2-0.4,0.5-0.9,0.6-1.3
				C171.8,31.6,171.8,31.3,171.8,30.8z M167.8,27c0,0.4-0.1,0.9-0.1,1.3s-0.1,0.8-0.2,1.2c-0.1,0.4-0.1,0.8-0.2,1.2
				c-0.1,0.4-0.2,0.8-0.2,1.2c-0.1,0.4-0.2,0.9-0.2,1.2c-0.1,0.4-0.2,0.8-0.2,1.2c-0.1,0.4-0.2,0.8-0.3,1.2
				c-0.1,0.4-0.2,0.8-0.3,1.2c-0.2,0.3-0.2,0.8-0.5,1.1s-0.3,0.8-0.6,1.1s-0.3,0.7-0.6,1.1c-0.2,0.3-0.5,0.7-0.6,1s-0.5,0.7-0.6,1
				c-0.2,0.3-0.5,0.7-0.6,1c-0.2,0.3-0.5,0.7-0.7,1c-0.2,0.3-0.5,0.6-0.7,0.9c-0.2,0.2-0.6,0.6-0.8,0.9c-0.2,0.2-0.6,0.6-0.9,0.7
				c-0.2,0.2-0.6,0.3-0.8,0.4h-0.1h-0.1h-0.1h-0.1c-0.1-0.1-0.2-0.1-0.3-0.2c-0.3-0.2-0.6-0.4-0.9-0.6c-0.2-0.1-0.2-0.2-0.5-0.3
				c-0.1-0.1-0.2-0.2-0.3-0.3c-0.2-0.2-0.2-0.2-0.3-0.4c-0.1-0.2-0.2-0.3-0.3-0.4c-0.2-0.3-0.5-0.6-0.7-0.9s-0.5-0.7-0.6-1
				c-0.2-0.3-0.5-0.7-0.6-1.1c-0.2-0.3-0.5-0.7-0.6-1c-0.2-0.3-0.3-0.7-0.6-1c-0.2-0.3-0.3-0.7-0.6-1c-0.2-0.3-0.3-0.7-0.5-1.1
				c-0.2-0.3-0.2-0.8-0.5-1.1c-0.2-0.4-0.2-0.8-0.3-1.2c-0.1-0.4-0.2-0.8-0.3-1.2c-0.1-0.4-0.2-0.8-0.2-1.2
				c-0.1-0.4-0.2-0.8-0.2-1.2c-0.1-0.4-0.2-0.8-0.2-1.2c-0.1-0.4-0.1-0.8-0.2-1.2c-0.1-0.4-0.1-0.8-0.1-1.2c0-0.4-0.1-0.9-0.1-1.2
				c0-0.3,0-0.6,0-0.9c0-0.2,0.1-0.6,0.2-0.8c0.2-0.3,0.6-0.6,0.8-0.7c0.3-0.2,0.7-0.3,1-0.6c0.3-0.2,0.7-0.2,1.2-0.4
				c0.3-0.2,0.8-0.2,1.2-0.4c0.5-0.1,0.8-0.2,1.3-0.3c0.3-0.2,0.8-0.2,1.2-0.4c0.3-0.2,0.7-0.2,1-0.4c0.3-0.2,0.7-0.2,0.9-0.3
				s0.6-0.1,0.9-0.1c0.3,0,0.7,0.1,0.9,0.2c0.3,0.1,0.7,0.2,1,0.3c0.3,0.2,0.7,0.3,1,0.4c0.3,0.2,0.8,0.2,1.2,0.4
				c0.5,0.2,0.8,0.2,1.3,0.3c0.5,0.1,0.8,0.2,1.2,0.4s0.7,0.2,1,0.4c0.3,0.2,0.8,0.3,1,0.6c0.2,0.1,0.2,0.2,0.3,0.3s0.1,0.2,0.2,0.3
				c0.1,0.2,0.1,0.6,0.1,0.8C168,26.3,167.8,26.6,167.8,27z"/>
			<path class="st3" d="M164.5,29.3c-0.2-0.2-0.6-0.6-0.8-0.8c-0.2-0.2-0.6-0.6-0.9-0.9c-0.1-0.1-0.2-0.2-0.2-0.2s0,0-0.1,0
				c0,0-0.1,0-0.2,0c-0.1,0-0.2,0-0.2,0c-0.2,0-0.6,0-0.9,0c-0.8,0-1.7,0-2.5,0c-0.9,0-1.7,0-2.7,0c-0.6,0-1.3,0-1.7,0
				c-0.1,0-0.2,0-0.2,0c-0.5,0.4-0.9,0.9-1.4,1.3c-0.2,0.2-0.5,0.4-0.6,0.6c0,0,0,0,0,0.1c0,0.1,0.1,0.1,0.1,0.2
				c0.1,0.1,0.2,0.2,0.2,0.3c0.2,0.4,0.6,0.9,0.9,1.3c0.2,0.4,0.6,0.9,0.9,1.3c0.3,0.4,0.6,0.9,0.9,1.3c0.3,0.4,0.7,0.9,1,1.2
				c0.3,0.3,0.8,0.8,1.3,0.9c0.2,0.2,0.6,0.3,0.9,0.2c0.3,0,0.7-0.2,1-0.4c0.5-0.2,0.9-0.7,1.3-1c0.3-0.4,0.7-0.8,1-1.2
				c0.3-0.4,0.6-0.9,0.9-1.3c0.2-0.2,0.2-0.4,0.5-0.7c0.2-0.2,0.2-0.4,0.5-0.7c0.2-0.4,0.6-0.9,0.9-1.3
				C164.5,29.5,164.5,29.4,164.5,29.3C164.5,29.2,164.5,29.3,164.5,29.3C164.6,29.4,164.5,29.4,164.5,29.3z"/>
			<path class="st3" d="M148.6,13.3c0.1,0.1,0.2,0.1,0.2,0.2c0.1,0,0.2,0,0.2,0c0.2,0,0.3,0,0.5,0c0.3,0,0.8,0,1.2,0
				c0.2,0,0.3,0,0.5-0.2c0.2-0.2,0.2-0.4,0.2-0.6c0-0.2-0.1-0.3-0.2-0.4c-0.2-0.1-0.5,0-0.6,0c-0.5,0-0.8,0-1.3,0
				c-0.2,0-0.3,0-0.6,0.1c-0.2,0.2-0.2,0.3-0.2,0.6c0,0.1,0,0.1,0,0.2C148.6,13.1,148.6,13.2,148.6,13.3z"/>
			<path class="st3" d="M165.6,13.4c0.1,0,0.2,0,0.2,0c0.2,0,0.3,0,0.5,0c0.3,0,0.8,0,1.2,0c0.2,0,0.3,0,0.5-0.2
				c0.2-0.2,0.2-0.4,0.2-0.6c0-0.2-0.1-0.3-0.2-0.4c-0.2-0.1-0.5,0-0.6,0c-0.5,0-0.8,0-1.3,0c-0.2,0-0.3,0-0.6,0.1
				c-0.2,0.2-0.2,0.3-0.2,0.6c0,0.1,0,0.1,0,0.2C165.2,13.2,165.3,13.3,165.6,13.4z"/>
			<path class="st3" d="M158.2,18.2c3.2,0,5.7-2.4,5.7-5.4c0-3.1-2.5-5.4-5.7-5.4c-3.2,0-5.7,2.4-5.7,5.4S155.1,18.2,158.2,18.2z
				 M158.2,9.2c2.1,0,3.8,1.7,3.8,3.6s-1.7,3.6-3.8,3.6c-2.1,0-3.8-1.7-3.8-3.6S156.1,9.2,158.2,9.2z"/>
			<path class="st3" d="M157.2,12.6c0.6,0,1.2-0.6,1.2-1.1s-0.6-1.1-1.2-1.1S156,11,156,11.5S156.6,12.6,157.2,12.6z"/>
			<path class="st3" d="M159.6,14.1c0.5,0,0.8-0.3,0.8-0.8s-0.3-0.8-0.8-0.8s-0.8,0.3-0.8,0.8S159.2,14.1,159.6,14.1z"/>
			<rect x="157.7" y="3.1" class="st3" width="1.4" height="3.1"/>
			<path class="st3" d="M158.2,51c-6.8,0-12.5,0.7-12.5,1.5c0,0.9,5.6,1.5,12.5,1.5c6.8,0,12.5-0.7,12.5-1.5
				C170.6,51.6,165.1,51,158.2,51z"/>
		</g>
		<path class="st8" d="M160.6,33.3c-0.5,0.5-1.1,0.8-1.8,0.8c-0.7,0-1.4-0.3-1.9-0.8c-0.5-0.5-0.8-1.1-0.8-1.9
			c0-0.7,0.3-1.4,0.8-1.9c0.5-0.5,1.1-0.8,1.9-0.8c0.7,0,1.3,0.3,2,0.8l-0.5,0.5c-0.5-0.4-0.9-0.6-1.4-0.6c-0.5,0-1,0.2-1.4,0.6
			c-0.4,0.4-0.6,0.9-0.6,1.4c0,0.5,0.2,1,0.6,1.4c0.4,0.4,0.9,0.6,1.4,0.6c0.5,0,0.9-0.1,1.2-0.4v-1.6h0.7V33.3z"/>
	</g>
</g>
</svg>
