<?xml version="1.0" encoding="utf-8"?>
<!-- Generator: Adobe Illustrator 23.0.3, SVG Export Plug-In . SVG Version: 6.00 Build 0)  -->
<svg version="1.1" xmlns="http://www.w3.org/2000/svg" xmlns:xlink="http://www.w3.org/1999/xlink" x="0px" y="0px" width="100px"
	 height="100px" viewBox="0 0 100 100" style="enable-background:new 0 0 100 100;" xml:space="preserve">
<style type="text/css">
	.st0{fill:#454545;}
	.st1{fill:#1E4223;}
	.st2{fill:none;}
	.st3{fill:#444444;}
	.st4{opacity:0.7;}
	.st5{fill:#FFFFFF;}
	.st6{fill:#B7B7B7;}
	.st7{fill:#606060;}
	.st8{fill:#6FC190;}
	.st9{fill:#59C116;}
	.st10{fill:#0049FF;}
	.st11{fill:#FF3C00;}
	.st12{fill:#FF9700;}
	.st13{fill:#2270A0;}
	.st14{fill:#FFD400;}
	.st15{fill:#444545;}
	.st16{fill:none;stroke:#444545;stroke-width:7;stroke-miterlimit:10;}
	.st17{display:none;}
	.st18{display:inline;}
</style>
<g id="Capa_3">
</g>
<g id="Capa_4">
</g>
<g id="Capa_1">
	<g id="Capa_2">
	</g>
	<path class="st0" d="M73.9,0L73.9,0H26.1h0c-8.7,0-15.7,7-15.7,15.7v0v24v44.6c0,8.7,7,15.7,15.7,15.7h16.1v0h6.6h2.5h6.6v0h16.1
		c8.7,0,15.7-7,15.7-15.7V39.7v-24v0C89.6,7,82.6,0,73.9,0z M28.8,20.5c0.5-0.2,1.1-0.4,1.8-0.4h38.9c0.6,0,1.2,0.1,1.8,0.4
		c1.6,0.7,2.8,2.3,2.8,4.2c0,1.9-1.1,3.5-2.8,4.2c-0.5,0.2-1.1,0.4-1.8,0.4H30.5c-0.6,0-1.2-0.1-1.8-0.4c-1.6-0.7-2.8-2.3-2.8-4.2
		C26,22.8,27.1,21.2,28.8,20.5z M69.5,65.8H48H32h-1.4c-2.5,0-4.6-2-4.6-4.6c0-2.5,2-4.6,4.6-4.6h16.7h5.6h16.7c2.5,0,4.6,2,4.6,4.6
		C74,63.7,72,65.8,69.5,65.8z M69.5,47.5h-7.9H38.4h-7.9c-2.5,0-4.6-2-4.6-4.6c0-0.6,0.1-1.1,0.3-1.7c0.1-0.1,0.1-0.3,0.2-0.4
		c0-0.1,0.1-0.2,0.1-0.3c0.1-0.1,0.2-0.2,0.2-0.4c0.1-0.1,0.1-0.2,0.2-0.3c0.1-0.1,0.2-0.2,0.3-0.3c0.2-0.2,0.4-0.3,0.6-0.5
		c0.1,0,0.1-0.1,0.2-0.1c0.2-0.1,0.3-0.2,0.5-0.3c0.1,0,0.2-0.1,0.3-0.1c0.2-0.1,0.4-0.1,0.5-0.2c0.1,0,0.2,0,0.3-0.1
		c0.3,0,0.5-0.1,0.8-0.1h38.9c0.3,0,0.6,0,0.8,0.1c0.1,0,0.2,0,0.3,0.1c0.2,0,0.4,0.1,0.5,0.2c0.1,0,0.2,0.1,0.3,0.1
		c0.2,0.1,0.3,0.2,0.5,0.3c0.1,0,0.2,0.1,0.2,0.1c0.2,0.1,0.4,0.3,0.6,0.5c0.1,0.1,0.2,0.2,0.3,0.3c0.1,0.1,0.2,0.2,0.2,0.3
		c0.1,0.1,0.2,0.2,0.2,0.4c0.1,0.1,0.1,0.2,0.1,0.3c0.1,0.1,0.1,0.3,0.2,0.4c0.2,0.5,0.3,1.1,0.3,1.7C74,45.5,72,47.5,69.5,47.5z"/>
</g>
</svg>
